<?xml version="1.0" standalone="no"?>
<!DOCTYPE svg PUBLIC "-//W3C//DTD SVG 1.1//EN" "http://www.w3.org/Graphics/SVG/1.1/DTD/svg11.dtd" >
<svg>
<metadata>
Created by FontForge 20090914 at Fri Feb 24 13:20:06 2012
 By root
&#194;&#169; 2009, 2010, 2011 Nippon Central FontMasters, Inc. All Rights Reserved.
</metadata>
<defs>
<font id="BurveticaNC" horiz-adv-x="1231" >
  <font-face 
    font-family="Burvetica NC"
    font-weight="400"
    font-stretch="normal"
    units-per-em="2048"
    panose-1="2 11 6 3 6 2 1 2 1 1"
    ascent="1638"
    descent="-410"
    x-height="1069"
    cap-height="1462"
    bbox="99.998 -457 2599 2090"
    underline-thickness="150"
    underline-position="-142"
    unicode-range="U+0020-U+2122"
  />
<missing-glyph horiz-adv-x="1249" 
d="M1046 102v1264h-844v-1264h844zM1149 1470v-1470h-1049v1470h1049z" />
    <glyph glyph-name=".notdef" horiz-adv-x="1249" 
d="M1046 102v1264h-844v-1264h844zM1149 1470v-1470h-1049v1470h1049z" />
    <glyph glyph-name="space" unicode=" " horiz-adv-x="401" 
 />
    <glyph glyph-name="space" unicode="&#xa0;" horiz-adv-x="401" 
 />
    <glyph glyph-name="exclam" unicode="!" horiz-adv-x="465" 
d="M326 197.5q39 -37.5 39 -90.5q0 -54 -39 -91.5t-94 -37.5t-93.5 37.5t-38.5 91.5q0 53 38.5 90.5t93.5 37.5t94 -37.5zM173 389q-56 437 -56 1043h242q2 -82 2 -160q0 -499 -82 -883h-106z" />
    <glyph glyph-name="quotedbl" unicode="&#x22;" horiz-adv-x="721" 
d="M438 1464l183 -1l-12 -582h-171v583zM100 1461l190 -1l-7 -572l-167 -6z" />
    <glyph glyph-name="numbersign" unicode="#" horiz-adv-x="1204" 
d="M516 850l-37 -266h227l37 266h-227zM1044 430h-194l-62 -430h-164l60 430h-226l-61 -430h-164l60 430h-193v154h215l37 266h-193v154h213l60 430h166l-62 -430h228l59 430h166l-62 -430h177v-154h-197l-37 -266h174v-154z" />
    <glyph glyph-name="dollar" unicode="$" horiz-adv-x="1382" 
d="M100 520l234 52q30 -181 127 -249q92 -64 242 -64h18q162 4 226.5 49t87.5 106q14 40 14 75q0 18 -3 35q-12 49 -76 102t-299.5 117t-326.5 117t-135 144q-43 88 -43 180v5q1 94 40.5 178.5t140 146t260.5 94.5l4 286l195 8l5 -297q236 -73 315 -148.5t127 -241.5
l-234 -61q-28 129 -108 182q-77 51 -196 51h-11q-126 -3 -205 -49.5t-93 -114.5q-4 -19 -4 -37q0 -47 28 -89q38 -58 102 -84.5t343.5 -107t347.5 -208.5q59 -111 59 -214q0 -17 -2 -33q-11 -119 -107.5 -230.5t-352.5 -176.5l-1 -314l-203 -3l-7 320q-222 43 -339 141
t-170 333z" />
    <glyph glyph-name="percent" unicode="%" horiz-adv-x="1912" 
d="M328 869q40 -69 122 -69t123 69q38 62 38 169q0 103 -34 164q-40 74 -127 74q-88 0 -127 -74q-30 -59 -30 -164q0 -108 35 -169zM178 768q-78 106 -78 287q0 178 81 286q91 121 261 121t261 -121q81 -108 81 -286q0 -181 -78 -287q-89 -121 -264 -121t-264 121zM1206 92
q-78 106 -78 287q0 178 81 287q91 120 261 120q171 0 261 -120q81 -109 81 -287q0 -181 -78 -287q-89 -121 -264 -121t-264 121zM1281 1543l156 -70l-823 -1572l-169 80zM1348 202q41 -72 126 -72t128 72q39 64 39 175q0 107 -35 170q-42 77 -132 77q-91 0 -131 -77
q-32 -61 -32 -170q0 -112 37 -175z" />
    <glyph glyph-name="ampersand" unicode="&#x26;" horiz-adv-x="1475" 
d="M562 671q-7 -5 -16 -10l-55 -30q-46 -26 -74 -49q-80 -69 -80 -178q0 -238 236 -238q110 0 185 58q28 21 54 52l27 29zM501 1161q0 -61 46 -131q15 -24 43 -58l44 -54l64 45q33 27 55 52q53 62 53 140q0 168 -150 168q-155 0 -155 -162zM1170 -112l-189 255
q-130 -124 -235 -151q-91 -24 -194 -24q-16 0 -31 1q-120 4 -197 39t-150.5 127.5t-73.5 212.5t31 209t294 274q-109 139 -131 240q-12 54 -12 104q0 41 9 80q18 83 75.5 149t197.5 104q57 16 111 16q76 0 144 -32q115 -54 150 -152.5t35 -187.5t-46.5 -189.5t-200.5 -185.5
l224 -306l172 276l154 -109l-187 -309l255 -325z" />
    <glyph glyph-name="quotesingle" unicode="'" horiz-adv-x="390" 
d="M100 1461l190 -1l-7 -572l-167 -6z" />
    <glyph glyph-name="parenleft" unicode="(" horiz-adv-x="626" 
d="M123 252q-23 156 -23 314q0 135 17 271q36 294 284 677l125 -72q-175 -353 -208 -626q-15 -125 -15 -249q0 -147 21 -291q39 -268 198 -574l-103 -98q-254 356 -296 648z" />
    <glyph glyph-name="parenright" unicode=")" horiz-adv-x="626" 
d="M207 -346l-103 98q159 306 198 574q21 144 21 291q0 124 -15 249q-33 273 -208 626l125 72q248 -383 284 -677q17 -136 17 -271q0 -158 -23 -314q-42 -292 -296 -648z" />
    <glyph glyph-name="asterisk" unicode="*" horiz-adv-x="862" 
d="M100 1131l45 154l235 -78l-20 255h160l-20 -255l233 78l29 -154l-223 -27l153 -203l-149 -90l-105 231l-109 -231l-145 90l153 193z" />
    <glyph glyph-name="plus" unicode="+" 
d="M509 1019l199 23l4 -424l403 1l16 -200l-416 -5l-7 -406l-208 -9v416l-399 -1l-1 206l406 6z" />
    <glyph glyph-name="comma" unicode="," horiz-adv-x="467" 
d="M165 -185l-65 44q105 104 121 162q-74 0 -98 50q-19 38 -19 76q0 10 2 20q6 46 35 73t70 34q9 2 18 2q32 0 65 -18q42 -23 61 -61q12 -25 12 -62q0 -19 -3 -40q-10 -65 -42 -114.5t-157 -165.5z" />
    <glyph glyph-name="hyphen" unicode="-" horiz-adv-x="806" 
d="M100 658l606 10l-10 -212l-586 -10z" />
    <glyph glyph-name="period" unicode="." horiz-adv-x="465" 
d="M326 277.5q39 -37.5 39 -90.5q0 -54 -39 -91.5t-94 -37.5t-93.5 37.5t-38.5 91.5q0 53 38.5 90.5t93.5 37.5t94 -37.5z" />
    <glyph glyph-name="slash" unicode="/" horiz-adv-x="1011" 
d="M718 1567l193 -70l-628 -1602l-183 70z" />
    <glyph glyph-name="zero" unicode="0" horiz-adv-x="1191" 
d="M847 1442q92 -63 151 -180q50 -102 74 -241q19 -117 19 -254q0 -138 -19 -254q-24 -140 -74 -241q-59 -117 -151 -180q-105 -71 -251 -71q-147 0 -251 71q-93 63 -152 180q-50 101 -73 241q-20 116 -20 254q0 137 20 254q23 139 73 241q59 117 152 180q104 70 251 70
q146 0 251 -70zM805 379q28 68 41 165q12 88 12 201q0 112 -12 200q-13 97 -41 165q-64 154 -203 154q-140 0 -204 -154q-27 -68 -41 -165q-12 -88 -12 -200q0 -113 12 -201q14 -97 41 -165q64 -153 204 -153q139 0 203 153z" />
    <glyph glyph-name="one" unicode="1" horiz-adv-x="759" 
d="M207 966l-107 168l371 340l188 -15l-15 -1454l-235 8l26 1157z" />
    <glyph glyph-name="two" unicode="2" horiz-adv-x="1104" 
d="M115 32l-15 219q71 276 281.5 384t291.5 184.5t100 162.5q6 29 6 59q0 61 -25 130q-37 102 -155 114q-19 1 -36 1q-94 0 -155 -51q-74 -62 -83 -298l-209 27q3 289 120.5 413.5t281.5 130.5q16 1 31 1q144 0 248 -52q114 -57 164 -180q43 -109 43 -227v-31
q-7 -136 -83.5 -240.5t-181 -165l-235.5 -132.5t-148 -236l647 18l-2 -240z" />
    <glyph glyph-name="three" unicode="3" horiz-adv-x="1216" 
d="M234 1283q60 83 166 129t224 46t219 -43.5t152 -120t65 -161.5q5 -32 5 -67q0 -58 -14 -124q-23 -106 -175 -180q175 -65 214 -192q26 -83 26 -159q0 -40 -7 -78q-21 -111 -81 -187.5t-180 -131.5q-115 -54 -238 -54q-6 0 -11 1q-130 2 -215 39t-163.5 124.5
t-120.5 300.5l240 46q0 -88 25.5 -155t88 -108.5t145.5 -48.5q12 -1 25 -1q70 0 141 34q83 39 113 127q20 59 20 113q0 24 -4 48q-14 74 -92.5 124.5t-272.5 64.5v162q107 4 169 27t96.5 74t39.5 123q1 7 1 15q0 62 -37 116q-42 60 -107 72q-25 4 -52 4q-44 0 -94 -11
q-81 -19 -127 -90.5t-51 -186.5l-225 27q32 199 92 282z" />
    <glyph glyph-name="four" unicode="4" horiz-adv-x="1234" 
d="M328 634l404 -10v591h-4zM729 50l3 372l-620 4l-12 239l632 897l205 -37l7 -909l190 -6v-197l-190 -4l-7 -367z" />
    <glyph glyph-name="five" unicode="5" horiz-adv-x="1125" 
d="M100 367l196 41q33 -167 141 -209q74 -30 140 -30q28 0 55 6q87 18 130 84.5t47 185.5v17q0 109 -39 208q-43 107 -142 117q-25 3 -49 3q-68 0 -121 -22q-71 -29 -114 -116l-226 71l63 696l797 13l15 -208l-623 -1l-17 -323q95 83 257 83q20 0 40 -1
q191 -11 265.5 -112.5t96.5 -221.5q13 -76 13 -162q0 -52 -5 -109q-13 -150 -105.5 -254t-236.5 -141q-58 -16 -123 -16q-97 0 -209 34q-188 55 -246 367z" />
    <glyph glyph-name="six" unicode="6" horiz-adv-x="1161" 
d="M787 338q62 83 62 207q0 123 -62 204q-69 89 -190 89q-122 0 -193 -88q-65 -80 -65 -205t65 -208q72 -91 193 -91t190 92zM325 868q111 157 278 157h9q173 -5 295.5 -113.5t147.5 -295.5q6 -48 6 -92q0 -130 -54 -232q-73 -137 -218 -199q-102 -44 -208 -44q-45 0 -91 8
q-154 27 -260.5 164t-124.5 428q-5 75 -5 142q0 195 39 328q52 178 149.5 282t241.5 135q48 11 99 11q98 0 202 -40q157 -60 204 -297l-213 -48q-21 123 -75 158q-52 33 -136 33h-7q-89 -2 -172 -89.5t-107 -395.5z" />
    <glyph glyph-name="seven" unicode="7" horiz-adv-x="1109" 
d="M107 1152l-7 239l889 -14l20 -219q-481 -528 -538 -1228l-252 13q119 764 558 1222z" />
    <glyph glyph-name="eight" unicode="8" horiz-adv-x="1169" 
d="M360 1059q0 -211 225 -211t225 211q0 219 -225 219t-225 -219zM857 422q0 116 -78 185q-75 67 -194 67q-120 0 -195 -67q-78 -69 -78 -185q0 -266 273 -266q272 0 272 266zM313 792q-125 82 -145.5 148t-22.5 143v10q0 73 27 152q28 84 94 136.5t192 69.5q53 6 109 6
q77 0 161 -12q144 -23 206 -99.5t79 -155.5q11 -51 11 -103q0 -29 -3 -58q-10 -83 -45.5 -141.5t-121.5 -91.5q142 -105 182 -212q33 -90 33 -185q0 -18 -1 -36q-8 -115 -55 -199.5t-148.5 -137t-219.5 -59.5q-25 -2 -49 -2q-90 0 -168 22q-100 28 -182 84t-113 144.5
t-33 190.5v8q0 97 46 185q48 92 167 193z" />
    <glyph glyph-name="nine" unicode="9" horiz-adv-x="1161" 
d="M374 1178q-62 -83 -62 -207t62 -205q69 -88 190 -88q122 0 193 87q65 81 65 206q0 124 -65 207q-72 92 -193 92t-190 -92zM836 647q-111 -157 -278 -157q-4 0 -9 1q-173 4 -295.5 112.5t-147.5 295.5q-6 48 -6 92q0 130 54 232q73 137 219 200q101 43 207 43q45 0 92 -8
q153 -27 259.5 -164t124.5 -428q5 -75 5 -142q0 -195 -39 -327q-52 -179 -149.5 -283t-240.5 -135q-49 -11 -100 -11q-98 0 -201 40q-158 60 -205 297l213 48q21 -123 75 -157q52 -34 136 -34q3 0 7 1q89 1 172 88.5t107 395.5z" />
    <glyph glyph-name="colon" unicode=":" horiz-adv-x="465" 
d="M326 277.5q39 -37.5 39 -90.5q0 -54 -39 -91.5t-94 -37.5t-93.5 37.5t-38.5 91.5q0 53 38.5 90.5t93.5 37.5t94 -37.5zM326 1161.5q39 -37.5 39 -90.5q0 -54 -39 -91.5t-94 -37.5t-93.5 37.5t-38.5 91.5q0 53 38.5 90.5t93.5 37.5t94 -37.5z" />
    <glyph glyph-name="semicolon" unicode=";" horiz-adv-x="468" 
d="M166 -185l-65 44q105 104 121 162q-74 0 -98 50q-19 38 -19 76q0 10 2 20q6 46 35 73t70 34q9 2 18 2q32 0 65 -18q42 -23 61 -61q12 -25 12 -62q0 -19 -3 -40q-10 -65 -42 -114.5t-157 -165.5zM326 1161.5q39 -37.5 39 -90.5q0 -54 -39 -91.5t-94 -37.5t-93.5 37.5
t-38.5 91.5q0 53 38.5 90.5t93.5 37.5t94 -37.5z" />
    <glyph glyph-name="less" unicode="&#x3c;" horiz-adv-x="1240" 
d="M1060 34l-960 410v148l960 421l80 -169l-766 -326l766 -325z" />
    <glyph glyph-name="equal" unicode="=" horiz-adv-x="1238" 
d="M1138 205l-1038 6l9 202l1028 3zM1132 625h-1031v199l1031 9v-208z" />
    <glyph glyph-name="greater" unicode="&#x3e;" horiz-adv-x="1240" 
d="M100 193l766 325l-766 326l80 169l960 -421v-148l-960 -410z" />
    <glyph glyph-name="question" unicode="?" horiz-adv-x="1157" 
d="M687 357l-219 8q0 158 30 237.5t126 170t140 117t44 129.5q0 102 -70 163q-54 46 -158 46q-33 0 -70 -5q-158 -19 -171 -277l-239 31q7 211 136 355q118 133 312 133h32q215 -12 340 -118t136 -272q1 -18 1 -35q0 -142 -80 -229q-91 -99 -190.5 -170.5t-99.5 -283.5z
M675 197.5q39 -37.5 39 -90.5q0 -54 -39 -91.5t-94 -37.5t-93.5 37.5t-38.5 91.5q0 53 38.5 90.5t93.5 37.5t94 -37.5z" />
    <glyph glyph-name="at" unicode="@" horiz-adv-x="1638" 
d="M1112 571q-19 -59 -19 -94q0 -47 39 -47q100 0 181 127q85 133 85 315q0 223 -160 361q-154 131 -386 131q-258 0 -425 -179q-163 -175 -163 -435q0 -295 173 -476q169 -176 433 -176q284 0 461 203l100 -83q-163 -253 -569 -253q-321 0 -539 221q-223 226 -223 572
q0 308 223 525q221 214 529 214q280 0 479 -168q207 -173 207 -432q0 -145 -52 -268q-46 -108 -128 -191q-149 -151 -304 -151q-111 0 -120 119h-5q-101 -117 -229 -117q-127 0 -214 95q-85 94 -85 226q0 206 124 363q131 168 325 168q157 0 229 -148l37 117h143zM940 569
q80 115 80 238q0 74 -48 127t-114 53q-120 0 -205 -121q-78 -111 -78 -237q0 -187 164 -187q114 0 201 127z" />
    <glyph glyph-name="A" unicode="A" horiz-adv-x="1557" 
d="M661 1462h273l523 -1412l-245 -50l-137 387h-584l-167 -457l-224 70zM561 582h447l-210 658h-6z" />
    <glyph glyph-name="B" unicode="B" horiz-adv-x="1419" 
d="M366 910l408 10q215 0 215 203q0 190 -215 190h-418zM356 259l453 10q245 0 245 231q0 216 -245 216l-443 10zM130 42l-30 1472l709 12q204 -12 324 -102q117 -88 117 -282v-9q-3 -202 -213 -286q276 -84 282 -391q0 -174 -132 -294q-130 -118 -414 -118h-10z" />
    <glyph glyph-name="C" unicode="C" horiz-adv-x="1488" 
d="M978 1288q-93 47 -193 47q-15 0 -30 -1q-116 -8 -215.5 -63t-162.5 -194q-59 -132 -59 -275v-18q4 -154 43.5 -276.5t149 -202.5t239.5 -80t210 33.5t141 111t74 238.5l213 -49q-77 -385 -306 -473q-160 -62 -314 -62q-67 0 -132 12q-216 38 -326 147t-160 257.5
t-50 343.5q0 194 66 356t177.5 260.5t227 123t222.5 25.5h8q103 0 198 -24q98 -26 206 -128.5t159 -318.5l-232 -47q-47 203 -154 257z" />
    <glyph glyph-name="D" unicode="D" horiz-adv-x="1450" 
d="M106 -66l-6 1466l607 4q318 -22 484 -220q159 -191 159 -491v-23q-7 -316 -166 -523t-509 -221zM592 138q35 -2 68 -2q210 0 292 101q95 117 118.5 213.5t26.5 210.5v21q0 102 -26 189q-29 96 -116 207q-79 100 -297 100q-24 0 -49 -1l-257 -12l-18 -1027h258z" />
    <glyph glyph-name="E" unicode="E" horiz-adv-x="1258" 
d="M100 1410l1058 2l-6 -235l-815 16v-414l598 -3l5 -216l-596 4l-4 -391l777 -7l6 -213l-1021 -7z" />
    <glyph glyph-name="F" unicode="F" horiz-adv-x="1207" 
d="M100 1513l1007 -1l-6 -219l-765 -7l5 -391l632 -5l-20 -227l-601 9l-11 -572l-230 -3z" />
    <glyph glyph-name="G" unicode="G" horiz-adv-x="1495" 
d="M978 1248q-93 47 -193 47q-15 0 -30 -1q-116 -8 -215.5 -63t-162.5 -194q-59 -132 -59 -275v-18q4 -154 43.5 -276.5t149 -202.5t239.5 -80t215 33.5t146 111t64 238.5l-365 2l-4 193l578 16l11 -817l-191 -8l-9 210q-120 -126 -288 -160q-87 -18 -172 -18q-79 0 -156 16
q-159 32 -269 141t-160 257.5t-50 343.5q0 194 66 356t177.5 260.5t227 123t222.5 25.5h8q103 0 198 -24q98 -26 206 -128.5t159 -318.5l-232 -47q-47 203 -154 257z" />
    <glyph glyph-name="H" unicode="H" horiz-adv-x="1377" 
d="M101 1394l260 26l-3 -612l669 1l-1 580l251 -14v-1448l-250 19l-1 641l-672 5l-13 -678l-241 11z" />
    <glyph glyph-name="I" unicode="I" horiz-adv-x="423" 
d="M100 1462l223 -10v-1492l-213 -10z" />
    <glyph glyph-name="J" unicode="J" horiz-adv-x="1166" 
d="M862 1489l202 -4q2 -206 2 -378q0 -738 -35 -848q-43 -135 -123 -202.5t-175 -84.5q-78 -15 -158 -15q-19 0 -37 1q-99 4 -177 29.5t-153 111t-108 330.5l210 36q24 -217 134 -263q80 -34 154 -34q28 0 54 5q98 17 147 98.5t49 278.5z" />
    <glyph glyph-name="K" unicode="K" horiz-adv-x="1444" 
d="M100 1332h246v-615l651 725l268 -54l-607 -643l686 -811l-250 -80l-600 730l-148 -172v-492l-236 -10z" />
    <glyph glyph-name="L" unicode="L" horiz-adv-x="1207" 
d="M111 1463l230 -3l-5 -1186l765 -7l6 -219l-1007 -1z" />
    <glyph glyph-name="M" unicode="M" horiz-adv-x="1768" 
d="M120 1462l350 10l414 -1055h4l393 1045l357 -10l30 -1452h-244l-30 1118h-4l-406 -1018h-211l-415 1008h-4l-10 -1108h-244z" />
    <glyph glyph-name="N" unicode="N" horiz-adv-x="1386" 
d="M110 1512h260l668 -1077h4v1107h244l-20 -1492h-251l-665 1095h-6v-995h-244z" />
    <glyph glyph-name="O" unicode="O" horiz-adv-x="1536" 
d="M438 1083q-101 -146 -101 -370t101 -370q115 -167 327 -167q213 0 328 167q101 146 101 370t-101 370q-115 167 -328 167q-212 0 -327 -167zM1258 1270q178 -216 178 -539q0 -325 -178 -540q-187 -226 -490 -226t-490 226q-178 215 -178 540q0 323 178 539
q187 227 490 227t490 -227z" />
    <glyph glyph-name="P" unicode="P" horiz-adv-x="1334" 
d="M329 878l427 2h6q247 0 247 229q-10 150 -78 197t-186 57l-423 -12zM109 116l-9 1460h696q235 -8 331.5 -126.5t105.5 -291.5q1 -18 1 -35q0 -152 -70 -270q-78 -133 -353 -185l-465 -3l-7 -559z" />
    <glyph glyph-name="Q" unicode="Q" horiz-adv-x="1528" 
d="M1410 6l-118 -139l-202 186q-143 -88 -326 -88q-302 0 -487 226q-177 215 -177 540q0 323 177 539q186 227 487 227t487 -227q177 -216 177 -539q0 -161 -46 -303q-52 -163 -150 -258zM779 338l117 141l169 -155q62 80 93 190q27 100 27 217q0 232 -99 384
q-113 173 -322 173t-322 -173q-99 -152 -99 -384t99 -384q113 -173 322 -173q86 0 155 35z" />
    <glyph glyph-name="R" unicode="R" horiz-adv-x="1338" 
d="M334 877h429q250 0 250 233q-10 169 -78 216t-186 57l-405 -10zM118 114l-18 1466h703q232 -12 328.5 -130.5t105.5 -276.5q1 -18 1 -35q0 -138 -64 -255q-72 -133 -273 -201l319 -632l-243 -48l-314 667l-314 -6l-9 -561z" />
    <glyph glyph-name="S" unicode="S" horiz-adv-x="1382" 
d="M100 520l234 52q30 -181 127 -249q92 -64 242 -64h18q162 4 226.5 49t87.5 106q14 40 14 75q0 18 -3 35q-12 49 -76 102t-299.5 117t-326.5 117t-135 144q-43 88 -43 180v5q1 94 40.5 178.5t140 146t285.5 78.5q56 4 106 4q114 0 194 -26q115 -38 194 -113.5t127 -241.5
l-234 -61q-28 129 -108 182q-77 51 -196 51h-11q-126 -3 -205 -49.5t-93 -114.5q-4 -19 -4 -37q0 -47 28 -89q38 -58 102 -84.5t343.5 -107t347.5 -208.5q59 -111 59 -214q0 -17 -2 -33q-11 -119 -83.5 -209.5t-219.5 -143.5q-103 -38 -242 -38q-60 0 -126 7
q-222 23 -339 121t-170 333z" />
    <glyph glyph-name="T" unicode="T" horiz-adv-x="1284" 
d="M100 1522l1084 20v-221l-405 -10v-1251h-236v1251l-443 -10v221z" />
    <glyph glyph-name="U" unicode="U" horiz-adv-x="1398" 
d="M107 1425l229 5v-248q0 -633 9 -709q11 -91 68 -174.5t144 -113.5q53 -18 121 -18q42 0 91 7q124 19 181 68t93 157q21 62 21 413q0 264 -12 691l242 7q4 -244 4 -439q0 -622 -41 -757q-54 -179 -167.5 -256t-264.5 -96q-58 -7 -116 -7q-93 0 -186 19q-151 30 -227 101.5
t-121 166t-64 231.5q-11 76 -11 364q0 228 7 588z" />
    <glyph glyph-name="V" unicode="V" horiz-adv-x="1422" 
d="M100 1462l246 30l357 -1177h4l375 1147l240 -30l-500 -1352l-235 -10z" />
    <glyph glyph-name="W" unicode="W" horiz-adv-x="2089" 
d="M100 1382l240 20l264 -1158h4l295 1058h262l287 -948h4l273 1048l260 -20l-404 -1392l-260 20l-293 1018h-4l-299 -1088l-264 -20z" />
    <glyph glyph-name="X" unicode="X" horiz-adv-x="1425" 
d="M135 1452l235 40l332 -516l356 526l267 -20l-474 -684l458 -708l-241 -50l-364 559l-371 -559l-233 40l458 708z" />
    <glyph glyph-name="Y" unicode="Y" horiz-adv-x="1492" 
d="M629 643l-529 879l267 40l387 -695l381 695l257 -40l-517 -849v-573l-246 -30v573z" />
    <glyph glyph-name="Z" unicode="Z" horiz-adv-x="1358" 
d="M166 1462l1052 30l10 -214l-822 -1057l842 -20l10 -241l-1158 40v209l812 1052l-746 -40v241z" />
    <glyph glyph-name="bracketleft" unicode="[" horiz-adv-x="657" 
d="M100 1497l457 10v-194l-246 -10l10 -1510h236v-204l-437 20z" />
    <glyph glyph-name="backslash" unicode="\" horiz-adv-x="1011" 
d="M911 -35l-183 -70l-628 1602l193 70z" />
    <glyph glyph-name="bracketright" unicode="]" horiz-adv-x="637" 
d="M537 -381h-437v194h226l10 1520h-236v204l437 -20v-1898z" />
    <glyph glyph-name="asciicircum" unicode="^" horiz-adv-x="1025" 
d="M100 736l339 698l147 10l339 -708l-179 -80l-234 536l-243 -546z" />
    <glyph glyph-name="underscore" unicode="_" horiz-adv-x="1224" 
d="M100 -256v102h1024v-102h-1024z" />
    <glyph glyph-name="grave" unicode="`" horiz-adv-x="661" 
d="M344 1569l217 -363l-170 -40l-291 333z" />
    <glyph glyph-name="a" unicode="a" 
d="M780 449q-278 -23 -362.5 -77t-87.5 -136q-1 -6 -1 -10q0 -75 51 -110q44 -30 111 -30q15 0 32 2q89 8 143 40t114 78v243zM233 921q82 85 218 116q62 14 130 14q78 0 164 -19q158 -36 205 -214q30 -118 30 -341q0 -114 -8 -257v-8q0 -81 64 -81q32 0 78 19l17 -186
q-78 -20 -140 -20q-142 0 -197 106q-101 -88 -179.5 -111.5t-168.5 -24.5q-4 -1 -8 -1q-85 0 -159 32q-78 32 -124 92t-54 146q-1 15 -1 32q0 71 28 149q35 96 174 164t475 99q0 137 -36 175t-141 46q-19 1 -36 1q-81 0 -133 -29q-65 -37 -76 -155l-214 27q10 144 92 229z
" />
    <glyph glyph-name="b" unicode="b" horiz-adv-x="1200" 
d="M870 488v9q0 148 -68 250q-76 116 -209 116q-256 0 -262 -375v-13q0 -155 70 -253q77 -106 210 -106q113 0 190 117q66 100 69 255zM102 -74l-2 1488h227l-9 -549q73 175 270 203q50 7 95 7q130 0 213 -60q112 -80 159 -239q45 -151 45 -282v-14q-3 -137 -48.5 -269.5
t-158 -206.5t-227.5 -74q-116 0 -206.5 45.5t-140.5 131.5l-7 -181h-210z" />
    <glyph glyph-name="c" unicode="c" horiz-adv-x="1144" 
d="M699 919q-58 22 -111 22q-30 0 -57 -6q-79 -20 -137 -89t-73 -185q-7 -50 -7 -98q0 -61 12 -116q19 -99 82 -166.5t159 -74.5q12 -1 23 -1q82 0 149 42q77 48 94 182l211 -43q-21 -140 -108 -239t-224 -123q-66 -12 -129 -12q-67 0 -129 13q-122 26 -203.5 103.5
t-119.5 217.5q-31 110 -31 222q0 29 2 58q10 141 65.5 256t140.5 171t174 74q49 9 109 9q47 0 99 -5q120 -14 221.5 -101t122.5 -257l-208 -34q-37 144 -127 180z" />
    <glyph glyph-name="d" unicode="d" horiz-adv-x="1200" 
d="M330 518q3 -155 69 -255q77 -117 190 -117q133 0 210 106q70 98 70 253v13q-6 375 -262 375q-133 0 -209 -116q-68 -102 -68 -250v-9zM888 -44l-7 181q-50 -86 -140.5 -131.5t-205.5 -45.5q-116 0 -228.5 74t-158 206.5t-47.5 269.5q-1 7 -1 14q0 131 45 282
q47 159 159 239q83 60 213 60q45 0 96 -7q196 -28 269 -203l-9 549h227l-2 -1488h-210z" />
    <glyph glyph-name="e" unicode="e" horiz-adv-x="1198" 
d="M338 465q12 -187 78.5 -254.5t172.5 -74.5q13 -1 26 -1q89 0 151 42q71 48 109 182l223 -43q-42 -140 -124 -239t-226 -123q-71 -12 -137 -12q-70 0 -136 13q-129 26 -226.5 130t-126.5 237q-22 98 -22 198q0 35 3 71q10 136 68.5 251t148.5 171t184 74q51 9 114 9
q52 0 113 -6q134 -15 244.5 -151.5t112.5 -467.5zM854 640q-8 109 -73 182q-71 80 -179 80q-113 0 -187 -76q-73 -74 -77 -186h516z" />
    <glyph glyph-name="f" unicode="f" horiz-adv-x="851" 
d="M286 -74l6 1007l-192 10l6 164h180q0 221 72 306t165 102q30 6 66 6q71 0 162 -23l-26 -187q-50 15 -90 15q-52 0 -86 -24q-58 -41 -58 -170q0 -12 1 -25h215l6 -180l-215 2v-1003h-212z" />
    <glyph glyph-name="g" unicode="g" horiz-adv-x="1193" 
d="M826 310q64 99 64 253q0 150 -66 243q-75 107 -218 107t-217 -118q-62 -99 -62 -250q0 -143 66 -240q76 -111 213 -111q144 0 220 116zM147 -81l210 36q34 -157 139 -183q57 -14 115 -14q49 0 98 10q108 22 147 94q31 56 31 205q0 39 -2 83q-117 -116 -205 -132
q-68 -12 -143 -12q-24 0 -48 1q-102 5 -200 73.5t-140 173.5t-48 255q-1 21 -1 41q0 125 34 232q39 123 139 203t197 102q55 12 116 12q47 0 99 -7q117 -17 222 -124l2 121l182 -4q2 -254 2 -456q0 -666 -25 -770q-33 -135 -108 -197.5t-175.5 -80t-199.5 -18.5h-9
q-94 0 -168 20q-78 20 -148 85.5t-113 250.5z" />
    <glyph glyph-name="h" unicode="h" horiz-adv-x="1125" 
d="M328 1466v-553q66 132 181 174q72 27 143 27q41 0 81 -9q110 -24 182 -117t96 -214q14 -69 14 -342q0 -205 -8 -524l-210 6q4 273 4 453q0 290 -10 344q-16 88 -70 133t-135 46h-4q-78 0 -125 -42q-48 -43 -84.5 -109t-42.5 -270l-12 -481l-210 -6l-18 1460z" />
    <glyph glyph-name="i" unicode="i" horiz-adv-x="465" 
d="M118 1052l223 10l-20 -1112h-193zM326 1397.5q39 -37.5 39 -90.5q0 -54 -39 -91.5t-94 -37.5t-93.5 37.5t-38.5 91.5q0 53 38.5 90.5t93.5 37.5t94 -37.5z" />
    <glyph glyph-name="j" unicode="j" horiz-adv-x="683" 
d="M123 -200q4 1 8 1q21 0 43 -13q108 22 147 93.5t39 288.5l-6 859l202 -14q2 -233 2 -419q0 -613 -25 -717q-33 -135 -108 -197.5t-176 -79.5q-28 -5 -59 -5q-42 0 -90 9zM544.5 1397.5q38.5 -37.5 38.5 -90.5q0 -54 -38.5 -91.5t-93.5 -37.5t-93.5 37.5t-38.5 91.5
q0 53 38.5 90.5t93.5 37.5t93.5 -37.5z" />
    <glyph glyph-name="k" unicode="k" horiz-adv-x="1141" 
d="M100 1422l223 20l10 -851l432 448l227 -50l-415 -419l464 -640l-245 -30l-373 534l-90 -95v-379l-223 -20z" />
    <glyph glyph-name="l" unicode="l" horiz-adv-x="423" 
d="M100 1462l223 -10v-1492l-213 -10z" />
    <glyph glyph-name="m" unicode="m" horiz-adv-x="1715" 
d="M322 1235l12 -240q54 138 155 173q60 21 125 21q42 0 86 -9q111 -23 219 -197q66 132 156 180q83 44 196 44h20q125 -4 218 -121t102 -257q4 -60 4 -209q0 -199 -7 -556l-202 18v595q-20 192 -74.5 240t-104.5 54q-6 1 -11 1q-46 0 -99 -43q-60 -48 -87 -117t-41 -304
l-6 -324l-196 -6q0 523 -21 613t-72 144q-42 44 -93 44q-11 0 -22 -2q-65 -12 -116 -51t-81 -108t-36 -279l-18 -487h-198l-30 1177z" />
    <glyph glyph-name="n" unicode="n" horiz-adv-x="1125" 
d="M318 1146l10 -253q66 132 181 174q72 27 143 27q41 0 81 -9q110 -24 182 -117t96 -214q14 -69 14 -342q0 -205 -8 -524l-210 6q4 273 4 453q0 290 -10 344q-16 88 -70 133t-135 46h-4q-78 0 -125 -42q-48 -43 -84.5 -109t-42.5 -270l-12 -481l-210 -6l-18 1160z" />
    <glyph glyph-name="o" unicode="o" horiz-adv-x="1228" 
d="M235 76q-135 159 -135 420q0 258 135 417q140 165 379 165t379 -165q135 -159 135 -417q0 -261 -135 -420q-140 -165 -379 -165t-379 165zM840 220q73 108 73 268q0 158 -73 266q-82 124 -228 124q-147 0 -229 -124q-73 -108 -73 -266q0 -160 73 -268q82 -124 229 -124
q146 0 228 124z" />
    <glyph glyph-name="p" unicode="p" horiz-adv-x="1200" 
d="M870 592q-3 155 -69 255q-77 117 -190 117q-133 0 -210 -106q-70 -98 -70 -253v-13q6 -375 262 -375q133 0 209 116q68 102 68 250v9zM312 1154l7 -181q50 86 140.5 131.5t206.5 45.5q115 0 227.5 -74t158 -206.5t48.5 -269.5v-14q0 -131 -45 -282q-47 -159 -159 -239
q-83 -60 -213 -60q-45 0 -95 8q-197 27 -270 202l9 -549h-227l2 1488h210z" />
    <glyph glyph-name="q" unicode="q" horiz-adv-x="1200" 
d="M330 602v-9q0 -148 68 -250q76 -116 209 -116q256 0 262 375v13q0 155 -70 253q-77 106 -210 106q-113 0 -190 -117q-66 -100 -69 -255zM1098 1164l2 -1488h-227l9 549q-73 -175 -269 -202q-51 -8 -96 -8q-130 0 -213 60q-112 80 -159 239q-45 151 -45 282q0 7 1 14
q2 137 47.5 269.5t158 206.5t228.5 74q115 0 205.5 -45.5t140.5 -131.5l7 181h210z" />
    <glyph glyph-name="r" unicode="r" horiz-adv-x="929" 
d="M770 844q-80 47 -151 47q-12 0 -23 -1q-81 -9 -129 -47t-84.5 -99t-42.5 -265l-12 -481l-210 -6l-18 1160l218 24l10 -253q66 132 185 179q45 18 102 18q92 0 214 -47z" />
    <glyph glyph-name="s" unicode="s" horiz-adv-x="1092" 
d="M100 347l213 40q16 -161 124 -186q73 -17 135 -17q28 0 54 4q82 11 112 46.5t36 67.5q1 6 1 12q0 26 -18 50q-23 30 -54.5 50t-191.5 66t-230 76t-112 82t-46 135v16q0 74 31 139q34 72 125.5 120t183.5 58q38 4 75 4q52 0 102 -8q86 -14 171.5 -69t136.5 -261l-200 -26
q-40 136 -104 157q-54 17 -107 17q-11 0 -21 -1q-63 -4 -108.5 -37t-49.5 -79v-10q0 -40 29 -65q32 -29 182 -64t260.5 -89.5t136.5 -119.5t26 -144v-3q-1 -82 -44 -150.5t-144.5 -117.5t-244.5 -50q-8 -1 -16 -1q-132 0 -209 25q-81 25 -143.5 85.5t-90.5 247.5z" />
    <glyph glyph-name="t" unicode="t" horiz-adv-x="891" 
d="M100 1159h176v317l224 30v-337l291 10v-184l-291 -10v-666q0 -81 19.5 -108t64.5 -27q44 0 177 38l30 -190q-178 -42 -266 -42q-89 0 -192 69q-52 56 -57 201v715h-176v184z" />
    <glyph glyph-name="u" unicode="u" horiz-adv-x="1129" 
d="M810 -111l-13 253q-65 -133 -179 -175q-73 -27 -144 -27q-41 0 -81 9q-110 24 -182 117t-96 214q-15 76 -15 402q0 190 5 464l211 -7q-2 -215 -2 -373q0 -362 11 -423q16 -88 70 -133t135 -46h4q78 0 125 42q48 43 84.5 109t40.5 272l11 474l217 14l17 -1163z" />
    <glyph glyph-name="v" unicode="v" horiz-adv-x="1216" 
d="M100 1059l234 50l278 -903h4l268 853l232 -50l-379 -1019l-252 10z" />
    <glyph glyph-name="w" unicode="w" horiz-adv-x="1720" 
d="M100 1059l228 50l227 -841h4l198 791l256 -10l170 -751h4l216 861l217 -60l-322 -1089l-229 20l-187 696h-4l-205 -726l-245 -30z" />
    <glyph glyph-name="x" unicode="x" horiz-adv-x="1206" 
d="M467 607l-367 552l233 40l271 -436l271 406l231 -60l-361 -490l356 -519l-231 -50l-268 391l-270 -371l-225 40z" />
    <glyph glyph-name="y" unicode="y" horiz-adv-x="1218" 
d="M100 1132l234 48l285 -817l297 769l202 -65l-599 -1499l-187 98l166 448z" />
    <glyph glyph-name="z" unicode="z" horiz-adv-x="1132" 
d="M141 1069l860 -20v-204l-616 -691l647 -20l-20 -224l-912 40v204l606 690l-565 10v215z" />
    <glyph glyph-name="braceleft" unicode="{" horiz-adv-x="825" 
d="M100 651h12q182 0 188 186l6 400q13 256 319 269l100 -4v-186l-94 2q-112 -6 -119 -100l-6 -400q0 -223 -212 -254q193 -32 206 -252l-6 -374q25 -138 143 -150h88v-169l-100 -13q-21 -2 -40 -2q-280 0 -291 334v362q-7 170 -188 176z" />
    <glyph glyph-name="bar" unicode="|" horiz-adv-x="407" 
d="M103 1607l204 2l-2 -2049l-205 4z" />
    <glyph glyph-name="braceright" unicode="}" horiz-adv-x="825" 
d="M725 459h-12q-182 0 -188 -186l-6 -400q-13 -256 -319 -269l-100 4v186l94 -2q112 6 119 100l6 400q0 223 212 254q-193 32 -206 252l6 374q-25 138 -143 150h-88v169l100 13q21 2 40 2q280 0 291 -334v-362q7 -170 188 -176z" />
    <glyph glyph-name="asciitilde" unicode="~" horiz-adv-x="1146" 
d="M1046 520q-56 -83 -102 -121q-68 -55 -154 -55q-91 0 -209 68q-57 33 -106 50q-63 21 -129 21q-61 0 -108 -45q-32 -32 -64 -94l-74 172q38 77 93 121q70 55 163 55q49 0 111 -19q42 -14 116 -46l112 -49q62 -25 97 -25q54 0 103 46q19 17 41 45l36 48z" />
    <glyph glyph-name="Adieresis" unicode="&#xc4;" horiz-adv-x="1557" 
d="M661 1462h273l523 -1412l-245 -50l-137 387h-584l-167 -457l-224 70zM561 582h447l-210 658h-6zM672 1858.5q39 -37.5 39 -90.5q0 -54 -39 -91.5t-94 -37.5t-93.5 37.5t-38.5 91.5q0 53 38.5 90.5t93.5 37.5t94 -37.5zM1072 1858.5q39 -37.5 39 -90.5q0 -54 -39 -91.5
t-94 -37.5t-93.5 37.5t-38.5 91.5q0 53 38.5 90.5t93.5 37.5t94 -37.5z" />
    <glyph glyph-name="Aring" unicode="&#xc5;" horiz-adv-x="1557" 
d="M661 1462h273l523 -1412l-245 -50l-137 387h-584l-167 -457l-224 70zM561 582h447l-210 658h-6zM799 1666q123 0 123 125t-123 125t-123 -125t123 -125zM649 1639q-63 60 -63 152q0 93 64 153q62 58 149 58q88 0 149 -58q64 -60 64 -153q0 -91 -64 -152q-61 -59 -149 -59
q-89 0 -150 59z" />
    <glyph glyph-name="Ccedilla" unicode="&#xc7;" horiz-adv-x="1488" 
d="M978 1228q-93 47 -193 47q-15 0 -30 -1q-116 -8 -215.5 -63t-162.5 -194q-59 -132 -59 -275v-18q4 -154 43.5 -276.5t149 -202.5t239.5 -80t210 33.5t141 111t74 238.5l213 -49q-77 -385 -306 -473q-160 -62 -314 -62q-67 0 -132 12q-216 38 -326 147t-160 257.5
t-50 343.5q0 194 66 356t177.5 260.5t227 123t222.5 25.5h8q103 0 198 -24q98 -26 206 -128.5t159 -318.5l-232 -47q-47 203 -154 257zM552 -328q71 -32 133 -32q54 0 84 15q41 20 41 69q0 77 -94 77q-48 0 -80 -20l-45 39l135 180h98l-94 -121l2 -2q22 8 68 8q67 0 117 -37
q57 -43 57 -116q0 -95 -80 -146q-67 -43 -168 -43q-126 0 -211 47z" />
    <glyph glyph-name="Eacute" unicode="&#xc9;" horiz-adv-x="1258" 
d="M100 1410l1058 2l-6 -235l-815 16v-414l598 -3l5 -216l-596 4l-4 -391l777 -7l6 -213l-1021 -7zM936 1880l-291 -333l-170 40l216 363z" />
    <glyph glyph-name="Ntilde" unicode="&#xd1;" horiz-adv-x="1386" 
d="M110 1512h260l668 -1077h4v1107h244l-20 -1492h-251l-665 1095h-6v-995h-244zM1055 1896q-18 -114 -68 -166q-56 -70 -159 -70q-63 0 -152 39q-88 37 -139 37q-73 0 -88 -84h-117q14 90 66 155q61 76 147 76q67 0 166 -41q86 -37 127 -37q79 0 102 91h115z" />
    <glyph glyph-name="Odieresis" unicode="&#xd6;" horiz-adv-x="1536" 
d="M438 1083q-101 -146 -101 -370t101 -370q115 -167 327 -167q213 0 328 167q101 146 101 370t-101 370q-115 167 -328 167q-212 0 -327 -167zM1258 1270q178 -216 178 -539q0 -325 -178 -540q-187 -226 -490 -226t-490 226q-178 215 -178 540q0 323 178 539
q187 227 490 227t490 -227zM662 1858.5q39 -37.5 39 -90.5q0 -54 -39 -91.5t-94 -37.5t-93.5 37.5t-38.5 91.5q0 53 38.5 90.5t93.5 37.5t94 -37.5zM1062 1858.5q39 -37.5 39 -90.5q0 -54 -39 -91.5t-94 -37.5t-93.5 37.5t-38.5 91.5q0 53 38.5 90.5t93.5 37.5t94 -37.5z
" />
    <glyph glyph-name="Udieresis" unicode="&#xdc;" horiz-adv-x="1398" 
d="M107 1425l229 5v-248q0 -633 9 -709q11 -91 68 -174.5t144 -113.5q53 -18 121 -18q42 0 91 7q124 19 181 68t93 157q21 62 21 413q0 264 -12 691l242 7q4 -244 4 -439q0 -622 -41 -757q-54 -179 -167.5 -256t-264.5 -96q-58 -7 -116 -7q-93 0 -186 19q-151 30 -227 101.5
t-121 166t-64 231.5q-11 76 -11 364q0 228 7 588zM593 1858.5q39 -37.5 39 -90.5q0 -54 -39 -91.5t-94 -37.5t-93.5 37.5t-38.5 91.5q0 53 38.5 90.5t93.5 37.5t94 -37.5zM993 1858.5q39 -37.5 39 -90.5q0 -54 -39 -91.5t-94 -37.5t-93.5 37.5t-38.5 91.5q0 53 38.5 90.5
t93.5 37.5t94 -37.5z" />
    <glyph glyph-name="aacute" unicode="&#xe1;" 
d="M780 449q-278 -23 -362.5 -77t-87.5 -136q-1 -6 -1 -10q0 -75 51 -110q44 -30 111 -30q15 0 32 2q89 8 143 40t114 78v243zM233 921q82 85 218 116q62 14 130 14q78 0 164 -19q158 -36 205 -214q30 -118 30 -341q0 -114 -8 -257v-8q0 -81 64 -81q32 0 78 19l17 -186
q-78 -20 -140 -20q-142 0 -197 106q-101 -88 -179.5 -111.5t-168.5 -24.5q-4 -1 -8 -1q-85 0 -159 32q-78 32 -124 92t-54 146q-1 15 -1 32q0 71 28 149q35 96 174 164t475 99q0 137 -36 175t-141 46q-19 1 -36 1q-81 0 -133 -29q-65 -37 -76 -155l-214 27q10 144 92 229z
M923 1499l-291 -333l-170 40l216 363z" />
    <glyph glyph-name="agrave" unicode="&#xe0;" 
d="M780 449q-278 -23 -362.5 -77t-87.5 -136q-1 -6 -1 -10q0 -75 51 -110q44 -30 111 -30q15 0 32 2q89 8 143 40t114 78v243zM233 921q82 85 218 116q62 14 130 14q78 0 164 -19q158 -36 205 -214q30 -118 30 -341q0 -114 -8 -257v-8q0 -81 64 -81q32 0 78 19l17 -186
q-78 -20 -140 -20q-142 0 -197 106q-101 -88 -179.5 -111.5t-168.5 -24.5q-4 -1 -8 -1q-85 0 -159 32q-78 32 -124 92t-54 146q-1 15 -1 32q0 71 28 149q35 96 174 164t475 99q0 137 -36 175t-141 46q-19 1 -36 1q-81 0 -133 -29q-65 -37 -76 -155l-214 27q10 144 92 229z
M452 1569l217 -363l-170 -40l-291 333z" />
    <glyph glyph-name="acircumflex" unicode="&#xe2;" 
d="M780 449q-278 -23 -362.5 -77t-87.5 -136q-1 -6 -1 -10q0 -75 51 -110q44 -30 111 -30q15 0 32 2q89 8 143 40t114 78v243zM233 921q82 85 218 116q62 14 130 14q78 0 164 -19q158 -36 205 -214q30 -118 30 -341q0 -114 -8 -257v-8q0 -81 64 -81q32 0 78 19l17 -186
q-78 -20 -140 -20q-142 0 -197 106q-101 -88 -179.5 -111.5t-168.5 -24.5q-4 -1 -8 -1q-85 0 -159 32q-78 32 -124 92t-54 146q-1 15 -1 32q0 71 28 149q35 96 174 164t475 99q0 137 -36 175t-141 46q-19 1 -36 1q-81 0 -133 -29q-65 -37 -76 -155l-214 27q10 144 92 229z
M426 1535h228l211 -313l-146 -39l-177 226l-186 -226l-151 40z" />
    <glyph glyph-name="adieresis" unicode="&#xe4;" 
d="M780 449q-278 -23 -362.5 -77t-87.5 -136q-1 -6 -1 -10q0 -75 51 -110q44 -30 111 -30q15 0 32 2q89 8 143 40t114 78v243zM233 921q82 85 218 116q62 14 130 14q78 0 164 -19q158 -36 205 -214q30 -118 30 -341q0 -114 -8 -257v-8q0 -81 64 -81q32 0 78 19l17 -186
q-78 -20 -140 -20q-142 0 -197 106q-101 -88 -179.5 -111.5t-168.5 -24.5q-4 -1 -8 -1q-85 0 -159 32q-78 32 -124 92t-54 146q-1 15 -1 32q0 71 28 149q35 96 174 164t475 99q0 137 -36 175t-141 46q-19 1 -36 1q-81 0 -133 -29q-65 -37 -76 -155l-214 27q10 144 92 229z
M449 1437.5q39 -37.5 39 -90.5q0 -54 -39 -91.5t-94 -37.5t-93.5 37.5t-38.5 91.5q0 53 38.5 90.5t93.5 37.5t94 -37.5zM849 1437.5q39 -37.5 39 -90.5q0 -54 -39 -91.5t-94 -37.5t-93.5 37.5t-38.5 91.5q0 53 38.5 90.5t93.5 37.5t94 -37.5z" />
    <glyph glyph-name="atilde" unicode="&#xe3;" 
d="M780 449q-278 -23 -362.5 -77t-87.5 -136q-1 -6 -1 -10q0 -75 51 -110q44 -30 111 -30q15 0 32 2q89 8 143 40t114 78v243zM233 921q82 85 218 116q62 14 130 14q78 0 164 -19q158 -36 205 -214q30 -118 30 -341q0 -114 -8 -257v-8q0 -81 64 -81q32 0 78 19l17 -186
q-78 -20 -140 -20q-142 0 -197 106q-101 -88 -179.5 -111.5t-168.5 -24.5q-4 -1 -8 -1q-85 0 -159 32q-78 32 -124 92t-54 146q-1 15 -1 32q0 71 28 149q35 96 174 164t475 99q0 137 -36 175t-141 46q-19 1 -36 1q-81 0 -133 -29q-65 -37 -76 -155l-214 27q10 144 92 229z
M897 1475q-18 -114 -68 -166q-56 -70 -159 -70q-63 0 -152 39q-88 37 -139 37q-73 0 -88 -84h-117q14 90 66 155q61 76 147 76q67 0 166 -41q86 -37 127 -37q79 0 102 91h115z" />
    <glyph glyph-name="aring" unicode="&#xe5;" 
d="M780 449q-278 -23 -362.5 -77t-87.5 -136q-1 -6 -1 -10q0 -75 51 -110q44 -30 111 -30q15 0 32 2q89 8 143 40t114 78v243zM233 921q82 85 218 116q62 14 130 14q78 0 164 -19q158 -36 205 -214q30 -118 30 -341q0 -114 -8 -257v-8q0 -81 64 -81q32 0 78 19l17 -186
q-78 -20 -140 -20q-142 0 -197 106q-101 -88 -179.5 -111.5t-168.5 -24.5q-4 -1 -8 -1q-85 0 -159 32q-78 32 -124 92t-54 146q-1 15 -1 32q0 71 28 149q35 96 174 164t475 99q0 137 -36 175t-141 46q-19 1 -36 1q-81 0 -133 -29q-65 -37 -76 -155l-214 27q10 144 92 229z
M575 1255q123 0 123 125t-123 125t-123 -125t123 -125zM425 1228q-63 60 -63 152q0 93 64 153q62 58 149 58q88 0 149 -58q64 -60 64 -153q0 -91 -64 -152q-61 -59 -149 -59q-89 0 -150 59z" />
    <glyph glyph-name="ccedilla" unicode="&#xe7;" horiz-adv-x="1144" 
d="M699 889q-58 22 -111 22q-30 0 -57 -6q-79 -20 -137 -89t-73 -185q-7 -50 -7 -98q0 -61 12 -116q19 -99 82 -166.5t159 -74.5q12 -1 23 -1q82 0 149 42q77 48 94 182l211 -43q-21 -140 -108 -239t-224 -123q-66 -12 -129 -12q-67 0 -129 13q-122 26 -203.5 103.5
t-119.5 217.5q-31 110 -31 222q0 29 2 58q10 141 65.5 256t140.5 171t174 74q49 9 109 9q47 0 99 -5q120 -14 221.5 -101t122.5 -257l-208 -34q-37 144 -127 180zM380 -328q71 -32 133 -32q54 0 84 15q41 20 41 69q0 77 -94 77q-48 0 -80 -20l-45 39l135 180h98l-94 -121
l2 -2q22 8 68 8q67 0 117 -37q57 -43 57 -116q0 -95 -80 -146q-67 -43 -168 -43q-126 0 -211 47z" />
    <glyph glyph-name="eacute" unicode="&#xe9;" horiz-adv-x="1198" 
d="M338 465q12 -187 78.5 -254.5t172.5 -74.5q13 -1 26 -1q89 0 151 42q71 48 109 182l223 -43q-42 -140 -124 -239t-226 -123q-71 -12 -137 -12q-70 0 -136 13q-129 26 -226.5 130t-126.5 237q-22 98 -22 198q0 35 3 71q10 136 68.5 251t148.5 171t184 74q51 9 114 9
q52 0 113 -6q134 -15 244.5 -151.5t112.5 -467.5zM854 640q-8 109 -73 182q-71 80 -179 80q-113 0 -187 -76q-73 -74 -77 -186h516zM906 1579l-291 -333l-170 40l216 363z" />
    <glyph glyph-name="egrave" unicode="&#xe8;" horiz-adv-x="1198" 
d="M338 465q12 -187 78.5 -254.5t172.5 -74.5q13 -1 26 -1q89 0 151 42q71 48 109 182l223 -43q-42 -140 -124 -239t-226 -123q-71 -12 -137 -12q-70 0 -136 13q-129 26 -226.5 130t-126.5 237q-22 98 -22 198q0 35 3 71q10 136 68.5 251t148.5 171t184 74q51 9 114 9
q52 0 113 -6q134 -15 244.5 -151.5t112.5 -467.5zM854 640q-8 109 -73 182q-71 80 -179 80q-113 0 -187 -76q-73 -74 -77 -186h516zM536 1639l217 -363l-170 -40l-291 333z" />
    <glyph glyph-name="ecircumflex" unicode="&#xea;" horiz-adv-x="1198" 
d="M338 465q12 -187 78.5 -254.5t172.5 -74.5q13 -1 26 -1q89 0 151 42q71 48 109 182l223 -43q-42 -140 -124 -239t-226 -123q-71 -12 -137 -12q-70 0 -136 13q-129 26 -226.5 130t-126.5 237q-22 98 -22 198q0 35 3 71q10 136 68.5 251t148.5 171t184 74q51 9 114 9
q52 0 113 -6q134 -15 244.5 -151.5t112.5 -467.5zM854 640q-8 109 -73 182q-71 80 -179 80q-113 0 -187 -76q-73 -74 -77 -186h516zM490 1575h228l211 -313l-146 -39l-177 226l-186 -226l-151 40z" />
    <glyph glyph-name="edieresis" unicode="&#xeb;" horiz-adv-x="1198" 
d="M338 465q12 -187 78.5 -254.5t172.5 -74.5q13 -1 26 -1q89 0 151 42q71 48 109 182l223 -43q-42 -140 -124 -239t-226 -123q-71 -12 -137 -12q-70 0 -136 13q-129 26 -226.5 130t-126.5 237q-22 98 -22 198q0 35 3 71q10 136 68.5 251t148.5 171t184 74q51 9 114 9
q52 0 113 -6q134 -15 244.5 -151.5t112.5 -467.5zM854 640q-8 109 -73 182q-71 80 -179 80q-113 0 -187 -76q-73 -74 -77 -186h516zM492 1437.5q39 -37.5 39 -90.5q0 -54 -39 -91.5t-94 -37.5t-93.5 37.5t-38.5 91.5q0 53 38.5 90.5t93.5 37.5t94 -37.5zM892 1437.5
q39 -37.5 39 -90.5q0 -54 -39 -91.5t-94 -37.5t-93.5 37.5t-38.5 91.5q0 53 38.5 90.5t93.5 37.5t94 -37.5z" />
    <glyph glyph-name="iacute" unicode="&#xed;" horiz-adv-x="661" 
d="M202 1052l223 10l-20 -1112h-193zM561 1539l-291 -333l-170 40l216 363z" />
    <glyph glyph-name="igrave" unicode="&#xec;" horiz-adv-x="661" 
d="M236 1052l223 10l-20 -1112h-193zM344 1639l217 -363l-170 -40l-291 333z" />
    <glyph glyph-name="icircumflex" unicode="&#xee;" horiz-adv-x="860" 
d="M318 1052l223 10l-20 -1112h-193zM321 1575h228l211 -313l-146 -39l-177 226l-186 -226l-151 40z" />
    <glyph glyph-name="idieresis" unicode="&#xef;" horiz-adv-x="865" 
d="M321 1052l223 10l-20 -1112h-193zM326 1437.5q39 -37.5 39 -90.5q0 -54 -39 -91.5t-94 -37.5t-93.5 37.5t-38.5 91.5q0 53 38.5 90.5t93.5 37.5t94 -37.5zM726 1437.5q39 -37.5 39 -90.5q0 -54 -39 -91.5t-94 -37.5t-93.5 37.5t-38.5 91.5q0 53 38.5 90.5t93.5 37.5
t94 -37.5z" />
    <glyph glyph-name="ntilde" unicode="&#xf1;" horiz-adv-x="1125" 
d="M318 1146l10 -253q66 132 181 174q72 27 143 27q41 0 81 -9q110 -24 182 -117t96 -214q14 -69 14 -342q0 -205 -8 -524l-210 6q4 273 4 453q0 290 -10 344q-16 88 -70 133t-135 46h-4q-78 0 -125 -42q-48 -43 -84.5 -109t-42.5 -270l-12 -481l-210 -6l-18 1160zM924 1535
q-18 -114 -68 -166q-56 -70 -159 -70q-63 0 -152 39q-88 37 -139 37q-73 0 -88 -84h-117q14 90 66 155q61 76 147 76q67 0 166 -41q86 -37 127 -37q79 0 102 91h115z" />
    <glyph glyph-name="oacute" unicode="&#xf3;" horiz-adv-x="1228" 
d="M235 76q-135 159 -135 420q0 258 135 417q140 165 379 165t379 -165q135 -159 135 -417q0 -261 -135 -420q-140 -165 -379 -165t-379 165zM840 220q73 108 73 268q0 158 -73 266q-82 124 -228 124q-147 0 -229 -124q-73 -108 -73 -266q0 -160 73 -268q82 -124 229 -124
q146 0 228 124zM921 1499l-291 -333l-170 40l216 363z" />
    <glyph glyph-name="ograve" unicode="&#xf2;" horiz-adv-x="1228" 
d="M235 76q-135 159 -135 420q0 258 135 417q140 165 379 165t379 -165q135 -159 135 -417q0 -261 -135 -420q-140 -165 -379 -165t-379 165zM840 220q73 108 73 268q0 158 -73 266q-82 124 -228 124q-147 0 -229 -124q-73 -108 -73 -266q0 -160 73 -268q82 -124 229 -124
q146 0 228 124zM551 1569l217 -363l-170 -40l-291 333z" />
    <glyph glyph-name="ocircumflex" unicode="&#xf4;" horiz-adv-x="1228" 
d="M235 76q-135 159 -135 420q0 258 135 417q140 165 379 165t379 -165q135 -159 135 -417q0 -261 -135 -420q-140 -165 -379 -165t-379 165zM840 220q73 108 73 268q0 158 -73 266q-82 124 -228 124q-147 0 -229 -124q-73 -108 -73 -266q0 -160 73 -268q82 -124 229 -124
q146 0 228 124zM505 1535h228l211 -313l-146 -39l-177 226l-186 -226l-151 40z" />
    <glyph glyph-name="odieresis" unicode="&#xf6;" horiz-adv-x="1228" 
d="M235 76q-135 159 -135 420q0 258 135 417q140 165 379 165t379 -165q135 -159 135 -417q0 -261 -135 -420q-140 -165 -379 -165t-379 165zM840 220q73 108 73 268q0 158 -73 266q-82 124 -228 124q-147 0 -229 -124q-73 -108 -73 -266q0 -160 73 -268q82 -124 229 -124
q146 0 228 124zM508 1437.5q39 -37.5 39 -90.5q0 -54 -39 -91.5t-94 -37.5t-93.5 37.5t-38.5 91.5q0 53 38.5 90.5t93.5 37.5t94 -37.5zM908 1437.5q39 -37.5 39 -90.5q0 -54 -39 -91.5t-94 -37.5t-93.5 37.5t-38.5 91.5q0 53 38.5 90.5t93.5 37.5t94 -37.5z" />
    <glyph glyph-name="otilde" unicode="&#xf5;" horiz-adv-x="1228" 
d="M235 76q-135 159 -135 420q0 258 135 417q140 165 379 165t379 -165q135 -159 135 -417q0 -261 -135 -420q-140 -165 -379 -165t-379 165zM840 220q73 108 73 268q0 158 -73 266q-82 124 -228 124q-147 0 -229 -124q-73 -108 -73 -266q0 -160 73 -268q82 -124 229 -124
q146 0 228 124zM976 1475q-18 -114 -68 -166q-56 -70 -159 -70q-63 0 -152 39q-88 37 -139 37q-73 0 -88 -84h-117q14 90 66 155q61 76 147 76q67 0 166 -41q86 -37 127 -37q79 0 102 91h115z" />
    <glyph glyph-name="uacute" unicode="&#xfa;" horiz-adv-x="1129" 
d="M810 -111l-13 253q-65 -133 -179 -175q-73 -27 -144 -27q-41 0 -81 9q-110 24 -182 117t-96 214q-15 76 -15 402q0 190 5 464l211 -7q-2 -215 -2 -373q0 -362 11 -423q16 -88 70 -133t135 -46h4q78 0 125 42q48 43 84.5 109t40.5 272l11 474l217 14l17 -1163zM872 1579
l-291 -333l-170 40l216 363z" />
    <glyph glyph-name="ugrave" unicode="&#xf9;" horiz-adv-x="1129" 
d="M810 -111l-13 253q-65 -133 -179 -175q-73 -27 -144 -27q-41 0 -81 9q-110 24 -182 117t-96 214q-15 76 -15 402q0 190 5 464l211 -7q-2 -215 -2 -373q0 -362 11 -423q16 -88 70 -133t135 -46h4q78 0 125 42q48 43 84.5 109t40.5 272l11 474l217 14l17 -1163zM501 1659
l217 -363l-170 -40l-291 333z" />
    <glyph glyph-name="ucircumflex" unicode="&#xfb;" horiz-adv-x="1129" 
d="M810 -111l-13 253q-65 -133 -179 -175q-73 -27 -144 -27q-41 0 -81 9q-110 24 -182 117t-96 214q-15 76 -15 402q0 190 5 464l211 -7q-2 -215 -2 -373q0 -362 11 -423q16 -88 70 -133t135 -46h4q78 0 125 42q48 43 84.5 109t40.5 272l11 474l217 14l17 -1163zM456 1635
h228l211 -313l-146 -39l-177 226l-186 -226l-151 40z" />
    <glyph glyph-name="udieresis" unicode="&#xfc;" horiz-adv-x="1129" 
d="M810 -111l-13 253q-65 -133 -179 -175q-73 -27 -144 -27q-41 0 -81 9q-110 24 -182 117t-96 214q-15 76 -15 402q0 190 5 464l211 -7q-2 -215 -2 -373q0 -362 11 -423q16 -88 70 -133t135 -46h4q78 0 125 42q48 43 84.5 109t40.5 272l11 474l217 14l17 -1163zM458 1487.5
q39 -37.5 39 -90.5q0 -54 -39 -91.5t-94 -37.5t-93.5 37.5t-38.5 91.5q0 53 38.5 90.5t93.5 37.5t94 -37.5zM858 1487.5q39 -37.5 39 -90.5q0 -54 -39 -91.5t-94 -37.5t-93.5 37.5t-38.5 91.5q0 53 38.5 90.5t93.5 37.5t94 -37.5z" />
    <glyph glyph-name="dagger" unicode="&#x2020;" horiz-adv-x="1210" 
d="M485 860l-382 -2l-3 207l393 -12l-2 412l220 1l1 -403h398l-1 -201l-396 2l-2 -1185l-215 -4z" />
    <glyph glyph-name="degree" unicode="&#xb0;" horiz-adv-x="814" 
d="M271 1019q56 -56 136 -56t136 56q57 56 57 136t-57 136q-56 57 -136 57t-136 -57q-56 -56 -56 -136t56 -136zM190 1372q90 90 217 90q128 0 218 -90q89 -89 89 -217q0 -127 -89 -217q-90 -90 -218 -90q-127 0 -217 90t-90 217q0 128 90 217z" />
    <glyph glyph-name="cent" unicode="&#xa2;" horiz-adv-x="1159" 
d="M839 630l220 -37q-29 -159 -114.5 -250t-252.5 -128v-345l-200 8v329q-152 49 -235.5 130.5t-124.5 222.5q-32 111 -32 221q0 30 2 59q11 139 74 258t145 170.5t171 63.5v333l200 -4l-7 -337q126 -4 233.5 -96.5t129.5 -248.5l-211 -52q-37 156 -126 195q-56 25 -111 25
q-32 0 -63 -8q-86 -23 -140 -97t-70 -181q-7 -42 -7 -83q0 -64 16 -125q26 -101 85.5 -173t157.5 -74h9q92 0 154 41q65 42 97 183z" />
    <glyph glyph-name="sterling" unicode="&#xa3;" horiz-adv-x="1303" 
d="M238 -101l-110 183q89 41 162 144.5t73 194.5t-56 185l-203 -9l-4 126l168 4q-115 94 -115 259q0 14 1 28q10 184 150 312q132 120 327 120h25q211 -8 353 -140q138 -128 138 -322v-11l-232 -47q-4 150 -69 235.5t-199 85.5q-243 -12 -251 -254q4 -89 109 -245l313 4
l8 -142h-272q40 -79 40 -157q0 -10 -1 -20q-6 -87 -61 -168t-157 -142q122 40 208 40q27 0 50 -4q99 -16 195 -50q25 -10 57 -10q84 0 209 68l109 -142q-136 -129 -262 -129q-21 0 -40 3q-145 24 -254 51t-194 29h-5q-84 0 -210 -80z" />
    <glyph glyph-name="section" unicode="&#xa7;" horiz-adv-x="1242" 
d="M446 919q-125 -38 -125 -163q0 -16 3 -30q4 -20 14 -40q28 -51 96 -90l373 -209q122 53 122 168q0 91 -143 170zM200 17l218 62q16 -219 211 -219q9 0 19 1h11q156 0 167 162q-16 95 -134 184l-466 274q-123 107 -126 252v19q0 208 235 288q-108 87 -108 193q0 10 1 20
q0 145 126 245.5t302 100.5t282 -111.5t106 -229.5l-223 -50q0 190 -196 196q-61 0 -108.5 -39.5t-55.5 -128.5q-1 -5 -1 -10q0 -82 126 -135l458 -274q98 -83 98 -201q0 -16 -2 -34q0 -112 -62 -190q-50 -78 -140 -101q101 -100 106 -251q-5 -196 -134 -285
q-89 -84 -257 -84q-212 0 -332.5 120t-120.5 226z" />
    <glyph glyph-name="bullet" unicode="&#x2022;" horiz-adv-x="649" 
d="M483.5 848q65.5 -66 65.5 -159t-65.5 -158.5t-158.5 -65.5t-159 65.5t-66 158.5t66 159t159 66t158.5 -66z" />
    <glyph glyph-name="paragraph" unicode="&#xb6;" horiz-adv-x="1196" 
d="M529 699q-192 6 -320 105q-109 105 -109 262v34q0 179 119 267t320 88h30l527 11l-1 -1787l-154 -6l4 1651l-246 -9l3 -1639l-161 -9z" />
    <glyph glyph-name="germandbls" unicode="&#xdf;" horiz-adv-x="1137" 
d="M100 1105q0 255 112 374.5t301 124.5h17q178 0 308 -94q132 -96 132 -298v-15q-5 -214 -203 -275q117 -20 190.5 -122t79.5 -282v-19q0 -168 -94 -284q-100 -122 -247 -158q-55 -13 -110 -13q-93 0 -186 38l46 199q94 -28 160 -28t105 28q76 56 89 145q8 55 8 115
q0 37 -3 76q-8 101 -86.5 149.5t-282.5 58.5v153q173 10 237 64q58 49 58 173v20q-5 140 -140 156q-30 3 -57 3q-93 0 -146 -41q-69 -54 -69 -202l-5 -1254l-209 -5z" />
    <glyph glyph-name="registered" unicode="&#xae;" horiz-adv-x="1701" 
d="M1439 825q0 266 -169 437q-162 180 -412 180h-11q-244 0 -416 -169q-161 -183 -161 -450v-14q0 -269 152 -440q169 -191 431 -198q254 7 423 187q163 172 163 442v25zM1601 799q0 -330 -215 -548q-219 -206 -533 -211q-324 5 -530 227q-219 215 -223 538q4 342 236 562
q209 210 519 217q312 -7 533 -225q213 -206 213 -525v-35zM857 854q98 0 138 22q54 25 54 99q0 8 -1 16q1 6 1 12q0 57 -52 84q-32 11 -84 11q-20 0 -44 -2l-160 9l-5 -250zM701 366l-141 8l2 852l332 -2q304 -3 304 -243q0 -113 -67 -165q-53 -59 -153 -69l218 -362
l-145 -54l-210 409l-142 -11z" />
    <glyph glyph-name="copyright" unicode="&#xa9;" horiz-adv-x="1702" 
d="M1240 478q-27 -109 -124 -195q-105 -85 -243 -86q-193 1 -313 133q-120 130 -121 326q1 195 116 310q118 134 319 134h6q137 0 231 -79q104 -81 132 -179l-155 -55q-31 181 -221 183q-122 -2 -195 -93q-63 -77 -63 -193v-37q0 -131 61 -218q83 -98 210 -105
q191 7 219 192zM1434 657q0 281 -169 464q-161 166 -397 166h-38q-239 0 -397 -170q-173 -179 -179 -456q6 -269 159 -440q170 -193 444 -194q242 1 406 176q171 180 171 448v6zM1379 103q-213 -201 -506 -201h-40q-319 0 -525 215q-208 211 -208 529v24q0 331 215 543
q216 208 524 208h33q293 0 509 -211q218 -213 221 -550q-3 -335 -223 -557z" />
    <glyph glyph-name="trademark" unicode="&#x2122;" horiz-adv-x="2018" 
d="M1421 960l233 506l235 -1l29 -870l-156 4l-26 674l-8 6l-251 -558h-108l-259 560l-1 1l1 -733l-151 -1l-7 909l243 5zM779 1325l-250 5l-9 -738l-164 -5l8 743l-264 -1l5 129l676 7z" />
    <glyph glyph-name="acute" unicode="&#xb4;" horiz-adv-x="661" 
d="M561 1499l-291 -333l-170 40l216 363z" />
    <glyph glyph-name="dieresis" unicode="&#xa8;" horiz-adv-x="865" 
d="M326 1437.5q39 -37.5 39 -90.5q0 -54 -39 -91.5t-94 -37.5t-93.5 37.5t-38.5 91.5q0 53 38.5 90.5t93.5 37.5t94 -37.5zM726 1437.5q39 -37.5 39 -90.5q0 -54 -39 -91.5t-94 -37.5t-93.5 37.5t-38.5 91.5q0 53 38.5 90.5t93.5 37.5t94 -37.5z" />
    <glyph glyph-name="AE" unicode="&#xc6;" horiz-adv-x="2136" 
d="M777 1461h1259l-3 -221l-713 -3l-1 -379l569 -2l-3 -212l-570 4l3 -425l701 -2l2 -221l-944 4l-2 338l-541 8l-211 -458l-223 90zM620 565l443 -2l2 682l-170 -9z" />
    <glyph glyph-name="Oslash" unicode="&#xd8;" horiz-adv-x="1577" 
d="M1473 1430l-159 -183q163 -217 163 -516q0 -325 -184 -540q-192 -226 -505 -226q-265 0 -446 168l-153 -174l-85 74l159 184q-163 214 -163 514q0 323 183 539q193 227 505 227q268 0 447 -166l151 172zM460 1083q-101 -146 -101 -370t101 -370q115 -167 327 -167
q213 0 328 167q101 146 101 370t-101 370q-115 167 -328 167q-212 0 -327 -167z" />
    <glyph glyph-name="plusminus" unicode="&#xb1;" horiz-adv-x="1246" 
d="M109 283l1023 13l12 -214l-1033 -7zM519 1120l212 1l-5 -260l417 -8l3 -200l-424 -7v-249l-204 -6l-4 266l-407 -6l-7 202l415 9z" />
    <glyph glyph-name="yen" unicode="&#xa5;" horiz-adv-x="1357" 
d="M532 336l-295 6l2 130l288 2l1 139l-286 4l7 125l192 -5l-341 654l191 66l353 -645l408 667l205 -70l-427 -663h216l-7 -133l-280 -3l-6 -140l293 -2l-12 -132l-277 1v-404l-238 -1z" />
    <glyph glyph-name="mu" unicode="&#xb5;" horiz-adv-x="1101" 
d="M1001 -5l-191 -2l-9 156l-15 -7q-91 -166 -269 -166h-26q-105 0 -164 62l-17 -433l-210 4l9 1445l221 2l3 -641v-14q0 -240 193 -240h23q122 0 179 79q58 67 58 192v16l10 614l191 -1z" />
    <glyph glyph-name="ae" unicode="&#xe6;" horiz-adv-x="1887" 
d="M784 449q-278 -23 -362.5 -77t-87.5 -136q-1 -6 -1 -10q0 -75 51 -110q44 -30 111 -30q15 0 32 2q89 8 143 40t114 78v243zM1540 640q-8 109 -73 182q-71 80 -179 80q-113 0 -187 -76q-73 -74 -77 -186h516zM1152 1090q72 19 154 19q56 0 117 -9q150 -22 249 -151
q95 -125 95 -459v-27l-741 4q17 -186 75.5 -254.5t167.5 -74.5q14 -1 27 -1q91 0 153 39q71 44 115 182l223 -40q-49 -142 -131.5 -237t-222.5 -125q-72 -16 -141 -16q-65 0 -126 14q-127 28 -261 145q-202 -137 -287 -159.5t-170 -22.5t-162 26.5t-125.5 89t-58.5 149.5
q-2 18 -2 36q0 72 31 152q38 101 171.5 166t469.5 85q7 50 7 88q0 68 -23 94q-37 40 -142 53q-26 3 -50 3q-73 0 -128 -29q-73 -39 -77 -169l-210 21q0 157 76.5 244t218.5 118q67 14 138 14q81 0 168 -18q163 -35 179 -132q101 150 223 182z" />
    <glyph glyph-name="oslash" unicode="&#xf8;" horiz-adv-x="1285" 
d="M100 0l133 147q-125 150 -125 383q0 247 141 400q145 157 394 157q209 0 348 -112l129 141l65 -57l-133 -146q125 -152 125 -383q0 -249 -140 -401q-146 -158 -394 -158q-209 0 -346 115l-131 -143zM888 271q75 99 75 247q0 147 -75 246q-84 115 -235 115
q-152 0 -236 -115q-76 -99 -76 -246q0 -148 76 -247q84 -115 236 -115q151 0 235 115z" />
    <glyph glyph-name="questiondown" unicode="&#xbf;" horiz-adv-x="1157" 
d="M470 820l219 -8q0 -158 -30 -237.5t-126 -170t-140 -117t-44 -129.5q0 -102 70 -163q54 -46 158 -46q33 0 70 5q158 19 171 277l239 -31q-7 -211 -136 -355q-118 -133 -312 -133h-32q-215 12 -340 118t-136 272q-1 18 -1 35q0 142 80 229q91 99 190.5 170.5t99.5 283.5z
M482 979.5q-39 37.5 -39 90.5q0 54 39 91.5t94 37.5t93.5 -37.5t38.5 -91.5q0 -53 -38.5 -90.5t-93.5 -37.5t-94 37.5z" />
    <glyph glyph-name="exclamdown" unicode="&#xa1;" horiz-adv-x="465" 
d="M139 979.5q-39 37.5 -39 90.5q0 54 39 91.5t94 37.5t93.5 -37.5t38.5 -91.5q0 -53 -38.5 -90.5t-93.5 -37.5t-94 37.5zM292 788q56 -437 56 -1043h-242q-2 82 -2 160q0 499 82 883h106z" />
    <glyph glyph-name="logicalnot" unicode="&#xac;" horiz-adv-x="1232" 
d="M913 621h-803l-10 208h1022l10 -598l-209 -10z" />
    <glyph glyph-name="florin" unicode="&#x192;" horiz-adv-x="1223" 
d="M100 -271l53 194q79 -22 128 -22q43 0 63 17q44 35 56 102.5t142 757.5h-177l6 177l194 6q61 447 158 524t191 86q25 2 52 2q73 0 157 -17l-36 -183q-45 3 -80 3q-94 0 -113 -23q-27 -33 -44.5 -98t-59.5 -290l212 1l-11 -176h-224q-148 -814 -195.5 -911t-106.5 -134.5
t-132 -46.5q-14 -2 -30 -2q-73 0 -203 33z" />
    <glyph glyph-name="guillemotleft" unicode="&#xab;" horiz-adv-x="902" 
d="M105 446l-5 224l318 251l-3 -209l-189 -151l191 -163l-3 -205zM483 446l-5 227l321 252l3 -217l-198 -151l195 -158l-4 -210z" />
    <glyph glyph-name="guillemotright" unicode="&#xbb;" horiz-adv-x="900" 
d="M420 668l-1 -231l-316 -243l2 207l187 157l-192 151l2 219zM800 670l-2 -227l-321 -250l6 204l190 164l-197 152l8 215z" />
    <glyph glyph-name="ellipsis" unicode="&#x2026;" horiz-adv-x="1431" 
d="M326 277.5q39 -37.5 39 -90.5q0 -54 -39 -91.5t-94 -37.5t-93.5 37.5t-38.5 91.5q0 53 38.5 90.5t93.5 37.5t94 -37.5zM809 247.5q39 -37.5 39 -90.5q0 -54 -39 -91.5t-94 -37.5t-93.5 37.5t-38.5 91.5q0 53 38.5 90.5t93.5 37.5t94 -37.5zM1292 277.5q39 -37.5 39 -90.5
q0 -54 -39 -91.5t-94 -37.5t-93.5 37.5t-38.5 91.5q0 53 38.5 90.5t93.5 37.5t94 -37.5z" />
    <glyph glyph-name="Agrave" unicode="&#xc0;" horiz-adv-x="1557" 
d="M661 1462h273l523 -1412l-245 -50l-137 387h-584l-167 -457l-224 70zM561 582h447l-210 658h-6zM715 2010l217 -363l-170 -40l-291 333z" />
    <glyph glyph-name="Atilde" unicode="&#xc3;" horiz-adv-x="1557" 
d="M661 1462h273l523 -1412l-245 -50l-137 387h-584l-167 -457l-224 70zM561 582h447l-210 658h-6zM1140 1896q-18 -114 -68 -166q-56 -70 -159 -70q-63 0 -152 39q-88 37 -139 37q-73 0 -88 -84h-117q14 90 66 155q61 76 147 76q67 0 166 -41q86 -37 127 -37q79 0 102 91
h115z" />
    <glyph glyph-name="Otilde" unicode="&#xd5;" horiz-adv-x="1536" 
d="M438 1083q-101 -146 -101 -370t101 -370q115 -167 327 -167q213 0 328 167q101 146 101 370t-101 370q-115 167 -328 167q-212 0 -327 -167zM1258 1270q178 -216 178 -539q0 -325 -178 -540q-187 -226 -490 -226t-490 226q-178 215 -178 540q0 323 178 539
q187 227 490 227t490 -227zM1130 1896q-18 -114 -68 -166q-56 -70 -159 -70q-63 0 -152 39q-88 37 -139 37q-73 0 -88 -84h-117q14 90 66 155q61 76 147 76q67 0 166 -41q86 -37 127 -37q79 0 102 91h115z" />
    <glyph glyph-name="OE" unicode="&#x152;" horiz-adv-x="2214" 
d="M1380 854l578 3l-6 -202l-563 1l-1 -431l702 -22l-6 -221l-928 15v131q-137 -163 -383 -168q-310 5 -489 228q-180 217 -184 534q4 326 178 542q194 227 496 227h34q225 0 348 -142l1 116l956 15l1 -216l-720 -29zM1150 999v3q0 116 -84 193q-94 93 -251 93
q-237 0 -359 -182q-97 -149 -103 -378q6 -226 109 -373q116 -181 350 -183q150 2 245 88q94 87 99 193z" />
    <glyph glyph-name="oe" unicode="&#x153;" horiz-adv-x="2028" 
d="M841 220q73 108 73 268q0 158 -73 266q-82 124 -228 124q-147 0 -229 -124q-73 -108 -73 -266q0 -160 73 -268q82 -124 229 -124q146 0 228 124zM1684 640q-8 109 -73 182q-71 80 -179 80q-113 0 -187 -76q-73 -74 -77 -186h516zM1132.5 1014q82.5 53 179.5 79
q54 14 125 14q55 0 120 -9q147 -20 247 -158q91 -126 91 -406q0 -28 -1 -57l-714 -6q5 -206 70 -268t168 -70q14 -2 27 -2q86 0 150 49q74 56 103 185l230 -41q-47 -171 -132.5 -265t-223.5 -117q-62 -11 -125 -11q-77 0 -155 16q-141 29 -254 171q-183 -212 -415 -212
q-233 0 -371.5 159t-150.5 416q-1 20 -1 40q0 229 125 381q141 188 383 188q236 0 412 -218q30 89 112.5 142z" />
    <glyph glyph-name="endash" unicode="&#x2013;" horiz-adv-x="1219" 
d="M100 669l1018 3l1 -237l-1010 16z" />
    <glyph glyph-name="emdash" unicode="&#x2014;" horiz-adv-x="1716" 
d="M103 669l1513 -1l-11 -210l-1505 -15z" />
    <glyph glyph-name="quotedblleft" unicode="&#x201c;" horiz-adv-x="817" 
d="M302 1436l65 -44q-105 -104 -121 -162q74 0 98 -49q19 -39 19 -77q0 -10 -1 -19q-7 -47 -36 -74t-69 -34q-10 -2 -19 -2q-32 0 -64 18q-43 23 -61 61q-13 25 -13 62q0 19 4 41q9 64 41 113.5t157 165.5zM652 1436l65 -44q-105 -104 -121 -162q74 0 98 -49q19 -39 19 -77
q0 -10 -1 -19q-7 -47 -36 -74t-69 -34q-10 -2 -19 -2q-32 0 -64 18q-43 23 -61 61q-13 25 -13 62q0 19 4 41q9 64 41 113.5t157 165.5z" />
    <glyph glyph-name="quotedblright" unicode="&#x201d;" horiz-adv-x="817" 
d="M515 975l-65 44q105 104 121 162q-74 0 -98 50q-19 38 -19 76q0 10 2 20q6 46 35 73t70 34q9 2 18 2q32 0 65 -18q42 -23 61 -61q12 -25 12 -62q0 -19 -3 -40q-10 -65 -42 -114.5t-157 -165.5zM165 975l-65 44q105 104 121 162q-74 0 -98 50q-19 38 -19 76q0 10 2 20
q6 46 35 73t70 34q9 2 18 2q32 0 65 -18q42 -23 61 -61q12 -25 12 -62q0 -19 -3 -40q-10 -65 -42 -114.5t-157 -165.5z" />
    <glyph glyph-name="quoteleft" unicode="&#x2018;" horiz-adv-x="467" 
d="M302 1436l65 -44q-105 -104 -121 -162q74 0 98 -49q19 -39 19 -77q0 -10 -1 -19q-7 -47 -36 -74t-69 -34q-10 -2 -19 -2q-32 0 -64 18q-43 23 -61 61q-13 25 -13 62q0 19 4 41q9 64 41 113.5t157 165.5z" />
    <glyph glyph-name="quoteright" unicode="&#x2019;" horiz-adv-x="467" 
d="M165 975l-65 44q105 104 121 162q-74 0 -98 50q-19 38 -19 76q0 10 2 20q6 46 35 73t70 34q9 2 18 2q32 0 65 -18q42 -23 61 -61q12 -25 12 -62q0 -19 -3 -40q-10 -65 -42 -114.5t-157 -165.5z" />
    <glyph glyph-name="divide" unicode="&#xf7;" horiz-adv-x="1239" 
d="M619 -55q-145 4 -145 145v4q0 145 135 145h19q140 0 143 -142q-3 -57 -51 -101q-42 -47 -101 -51zM626 789q-150 4 -150 143v11q0 141 134 141h12q146 0 148 -146q-2 -54 -44 -104q-48 -41 -100 -45zM100 416l6 208l1033 -6l-2 -202h-1037z" />
    <glyph glyph-name="ydieresis" unicode="&#xff;" horiz-adv-x="1218" 
d="M100 1132l234 48l285 -817l297 769l202 -65l-599 -1499l-187 98l166 448zM503 1487.5q39 -37.5 39 -90.5q0 -54 -39 -91.5t-94 -37.5t-93.5 37.5t-38.5 91.5q0 53 38.5 90.5t93.5 37.5t94 -37.5zM903 1487.5q39 -37.5 39 -90.5q0 -54 -39 -91.5t-94 -37.5t-93.5 37.5
t-38.5 91.5q0 53 38.5 90.5t93.5 37.5t94 -37.5z" />
    <glyph glyph-name="Ydieresis" unicode="&#x178;" horiz-adv-x="1492" 
d="M629 643l-529 879l267 40l387 -695l381 695l257 -40l-517 -849v-573l-246 -30v573zM640 1908.5q39 -37.5 39 -90.5q0 -54 -39 -91.5t-94 -37.5t-93.5 37.5t-38.5 91.5q0 53 38.5 90.5t93.5 37.5t94 -37.5zM1040 1908.5q39 -37.5 39 -90.5q0 -54 -39 -91.5t-94 -37.5
t-93.5 37.5t-38.5 91.5q0 53 38.5 90.5t93.5 37.5t94 -37.5z" />
    <glyph glyph-name="currency" unicode="&#xa4;" horiz-adv-x="1267" 
d="M656 394q133 0 217 99q96 90 96 219v11q0 134 -91 227q-90 97 -218 97h-11q-144 0 -239 -89q-92 -98 -92 -235v-23q0 -124 90 -209q95 -97 227 -97h21zM100 300l125 130q-105 109 -112 287q7 196 111 297l-116 119l119 124l110 -120q106 87 280 87h26q13 1 25 1
q153 0 256 -82l108 109l135 -125l-115 -118q92 -97 94 -288q-2 -184 -93 -307l112 -117l-116 -116l-121 118q-104 -96 -285 -99q-198 3 -302 97l-125 -106z" />
    <glyph glyph-name="guilsinglleft" unicode="&#x2039;" horiz-adv-x="524" 
d="M104 445l-4 231l320 250l-3 -216l-191 -150l198 -163l-4 -211z" />
    <glyph glyph-name="guilsinglright" unicode="&#x203a;" horiz-adv-x="522" 
d="M421 669l1 -229l-318 -255v212l195 160l-199 157v210z" />
    <glyph glyph-name="daggerdbl" unicode="&#x2021;" horiz-adv-x="1227" 
d="M496 71l-393 -2l-3 207l392 -4l5 598l-396 -9l9 201l390 -10l-4 408l241 9l-1 -412l382 -1l9 -192l-390 -2v-597l385 10l4 -199l-401 -1l3 -396l-229 -14z" />
    <glyph glyph-name="periodcentered" unicode="&#xb7;" horiz-adv-x="425" 
d="M292.092 786.868q33.1494 -31.874 33.1494 -76.9229q0 -45.8984 -33.1494 -77.7725q-33.1484 -31.874 -79.8975 -31.874t-79.4727 31.874t-32.7236 77.7725q0 45.0488 32.7236 76.9229t79.4727 31.874t79.8975 -31.874z" />
    <glyph glyph-name="quotesinglbase" unicode="&#x201a;" horiz-adv-x="467" 
d="M165 -230l-65 44q105 104 121 162q-74 0 -98 50q-19 38 -19 76q0 10 2 20q6 46 35 73t70 34q9 2 18 2q32 0 65 -18q42 -23 61 -61q12 -25 12 -62q0 -19 -3 -40q-10 -65 -42 -114.5t-157 -165.5z" />
    <glyph glyph-name="quotedblbase" unicode="&#x201e;" horiz-adv-x="817" 
d="M515 -230l-65 44q105 104 121 162q-74 0 -98 50q-19 38 -19 76q0 10 2 20q6 46 35 73t70 34q9 2 18 2q32 0 65 -18q42 -23 61 -61q12 -25 12 -62q0 -19 -3 -40q-10 -65 -42 -114.5t-157 -165.5zM165 -230l-65 44q105 104 121 162q-74 0 -98 50q-19 38 -19 76q0 10 2 20
q6 46 35 73t70 34q9 2 18 2q32 0 65 -18q42 -23 61 -61q12 -25 12 -62q0 -19 -3 -40q-10 -65 -42 -114.5t-157 -165.5z" />
    <glyph glyph-name="perthousand" unicode="&#x2030;" horiz-adv-x="2699" 
d="M326 875q40 -75 123 -77q81 2 126 71q34 62 34 170q0 102 -37 166q-36 69 -116 69h-10q-87 0 -128 -76q-27 -55 -28 -166q1 -102 36 -157zM179 762q-79 109 -79 283v18q0 173 75 281q92 114 254 114h22q162 0 249 -119q82 -106 82 -289q0 -176 -85 -289
q-82 -114 -258 -120q-174 6 -260 121zM1470 -28q-178 0 -264 119q-78 104 -78 279v17q0 172 83 273q87 126 260 128q168 -2 258 -122q81 -109 82 -291q-1 -177 -75 -280q-92 -123 -260 -123h-6zM1278 1543l151 -66l-824 -1583l-166 91zM1312 356q0 -97 28 -159
q44 -62 118 -62h21q81 0 121 73q39 58 43 175q-4 101 -43 163q-35 72 -117 72h-26q-79 0 -116 -69q-29 -58 -29 -155v-38zM2001 127q-85 101 -90 282q5 178 88 290q89 117 259 119q171 -2 267 -119q74 -111 74 -283v-9q0 -180 -82 -283q-84 -123 -255 -130q-179 7 -261 133z
M2136 226q41 -66 126 -66t130 79q32 49 32 134q0 14 -1 29q1 15 1 29q0 92 -34 149q-38 74 -131 74q-88 0 -135 -84q-25 -54 -27 -161q2 -114 39 -183z" />
    <glyph glyph-name="Acircumflex" unicode="&#xc2;" horiz-adv-x="1557" 
d="M661 1462h273l523 -1412l-245 -50l-137 387h-584l-167 -457l-224 70zM561 582h447l-210 658h-6zM670 1956h228l211 -313l-146 -39l-177 226l-186 -226l-151 40z" />
    <glyph glyph-name="Ecircumflex" unicode="&#xca;" horiz-adv-x="1258" 
d="M100 1410l1058 2l-6 -235l-815 16v-414l598 -3l5 -216l-596 4l-4 -391l777 -7l6 -213l-1021 -7zM520 1956h228l211 -313l-146 -39l-177 226l-186 -226l-151 40z" />
    <glyph glyph-name="Aacute" unicode="&#xc1;" horiz-adv-x="1557" 
d="M661 1462h273l523 -1412l-245 -50l-137 387h-584l-167 -457l-224 70zM561 582h447l-210 658h-6zM1086 1930l-291 -333l-170 40l216 363z" />
    <glyph glyph-name="Edieresis" unicode="&#xcb;" horiz-adv-x="1258" 
d="M100 1410l1058 2l-6 -235l-815 16v-414l598 -3l5 -216l-596 4l-4 -391l777 -7l6 -213l-1021 -7zM523 1758.5q39 -37.5 39 -90.5q0 -54 -39 -91.5t-94 -37.5t-93.5 37.5t-38.5 91.5q0 53 38.5 90.5t93.5 37.5t94 -37.5zM923 1758.5q39 -37.5 39 -90.5q0 -54 -39 -91.5
t-94 -37.5t-93.5 37.5t-38.5 91.5q0 53 38.5 90.5t93.5 37.5t94 -37.5z" />
    <glyph glyph-name="Egrave" unicode="&#xc8;" horiz-adv-x="1258" 
d="M100 1410l1058 2l-6 -235l-815 16v-414l598 -3l5 -216l-596 4l-4 -391l777 -7l6 -213l-1021 -7zM566 1950l217 -363l-170 -40l-291 333z" />
    <glyph glyph-name="Iacute" unicode="&#xcd;" horiz-adv-x="661" 
d="M192 1462l223 -10v-1492l-213 -10zM561 1920l-291 -333l-170 40l216 363z" />
    <glyph glyph-name="Icircumflex" unicode="&#xce;" horiz-adv-x="860" 
d="M318 1462l223 -10v-1492l-213 -10zM321 1956h228l211 -313l-146 -39l-177 226l-186 -226l-151 40z" />
    <glyph glyph-name="Idieresis" unicode="&#xcf;" horiz-adv-x="865" 
d="M321 1462l223 -10v-1492l-213 -10zM326 1858.5q39 -37.5 39 -90.5q0 -54 -39 -91.5t-94 -37.5t-93.5 37.5t-38.5 91.5q0 53 38.5 90.5t93.5 37.5t94 -37.5zM726 1858.5q39 -37.5 39 -90.5q0 -54 -39 -91.5t-94 -37.5t-93.5 37.5t-38.5 91.5q0 53 38.5 90.5t93.5 37.5
t94 -37.5z" />
    <glyph glyph-name="Igrave" unicode="&#xcc;" horiz-adv-x="661" 
d="M216 1462l223 -10v-1492l-213 -10zM344 1980l217 -363l-170 -40l-291 333z" />
    <glyph glyph-name="Oacute" unicode="&#xd3;" horiz-adv-x="1536" 
d="M438 1083q-101 -146 -101 -370t101 -370q115 -167 327 -167q213 0 328 167q101 146 101 370t-101 370q-115 167 -328 167q-212 0 -327 -167zM1258 1270q178 -216 178 -539q0 -325 -178 -540q-187 -226 -490 -226t-490 226q-178 215 -178 540q0 323 178 539
q187 227 490 227t490 -227zM1075 1960l-291 -333l-170 40l216 363z" />
    <glyph glyph-name="Ocircumflex" unicode="&#xd4;" horiz-adv-x="1536" 
d="M438 1083q-101 -146 -101 -370t101 -370q115 -167 327 -167q213 0 328 167q101 146 101 370t-101 370q-115 167 -328 167q-212 0 -327 -167zM1258 1270q178 -216 178 -539q0 -325 -178 -540q-187 -226 -490 -226t-490 226q-178 215 -178 540q0 323 178 539
q187 227 490 227t490 -227zM659 1956h228l211 -313l-146 -39l-177 226l-186 -226l-151 40z" />
    <glyph glyph-name="Ograve" unicode="&#xd2;" horiz-adv-x="1536" 
d="M438 1083q-101 -146 -101 -370t101 -370q115 -167 327 -167q213 0 328 167q101 146 101 370t-101 370q-115 167 -328 167q-212 0 -327 -167zM1258 1270q178 -216 178 -539q0 -325 -178 -540q-187 -226 -490 -226t-490 226q-178 215 -178 540q0 323 178 539
q187 227 490 227t490 -227zM705 2030l217 -363l-170 -40l-291 333z" />
    <glyph glyph-name="Uacute" unicode="&#xda;" horiz-adv-x="1398" 
d="M107 1425l229 5v-248q0 -633 9 -709q11 -91 68 -174.5t144 -113.5q53 -18 121 -18q42 0 91 7q124 19 181 68t93 157q21 62 21 413q0 264 -12 691l242 7q4 -244 4 -439q0 -622 -41 -757q-54 -179 -167.5 -256t-264.5 -96q-58 -7 -116 -7q-93 0 -186 19q-151 30 -227 101.5
t-121 166t-64 231.5q-11 76 -11 364q0 228 7 588zM1007 1920l-291 -333l-170 40l216 363z" />
    <glyph glyph-name="Ucircumflex" unicode="&#xdb;" horiz-adv-x="1398" 
d="M107 1425l229 5v-248q0 -633 9 -709q11 -91 68 -174.5t144 -113.5q53 -18 121 -18q42 0 91 7q124 19 181 68t93 157q21 62 21 413q0 264 -12 691l242 7q4 -244 4 -439q0 -622 -41 -757q-54 -179 -167.5 -256t-264.5 -96q-58 -7 -116 -7q-93 0 -186 19q-151 30 -227 101.5
t-121 166t-64 231.5q-11 76 -11 364q0 228 7 588zM590 1956h228l211 -313l-146 -39l-177 226l-186 -226l-151 40z" />
    <glyph glyph-name="Ugrave" unicode="&#xd9;" horiz-adv-x="1398" 
d="M107 1425l229 5v-248q0 -633 9 -709q11 -91 68 -174.5t144 -113.5q53 -18 121 -18q42 0 91 7q124 19 181 68t93 157q21 62 21 413q0 264 -12 691l242 7q4 -244 4 -439q0 -622 -41 -757q-54 -179 -167.5 -256t-264.5 -96q-58 -7 -116 -7q-93 0 -186 19q-151 30 -227 101.5
t-121 166t-64 231.5q-11 76 -11 364q0 228 7 588zM636 1990l217 -363l-170 -40l-291 333z" />
    <glyph glyph-name="dotlessi" unicode="&#x131;" horiz-adv-x="423" 
d="M100 1052l223 10l-20 -1112h-193z" />
    <glyph glyph-name="circumflex" unicode="&#x2c6;" horiz-adv-x="860" 
d="M321 1535h228l211 -313l-146 -39l-177 226l-186 -226l-151 40z" />
    <glyph glyph-name="tilde" unicode="&#x2dc;" horiz-adv-x="923" 
d="M823 1475q-18 -114 -68 -166q-56 -70 -159 -70q-63 0 -152 39q-88 37 -139 37q-73 0 -88 -84h-117q14 90 66 155q61 76 147 76q67 0 166 -41q86 -37 127 -37q79 0 102 91h115z" />
    <glyph glyph-name="breve" unicode="&#x2d8;" horiz-adv-x="862" 
d="M219 1497q30 -156 219 -156q173 0 207 156h117q-34 -289 -340 -289q-297 0 -322 289h119z" />
    <glyph glyph-name="dotaccent" unicode="&#x2d9;" horiz-adv-x="425" 
d="M292.092 1647.87q33.1494 -31.874 33.1494 -76.9229q0 -45.8984 -33.1494 -77.7725q-33.1484 -31.874 -79.8975 -31.874t-79.4727 31.874t-32.7236 77.7725q0 45.0488 32.7236 76.9229t79.4727 31.874t79.8975 -31.874z" />
    <glyph glyph-name="ring" unicode="&#x2da;" horiz-adv-x="626" 
d="M313 1255q123 0 123 125t-123 125t-123 -125t123 -125zM163 1228q-63 60 -63 152q0 93 64 153q62 58 149 58q88 0 149 -58q64 -60 64 -153q0 -91 -64 -152q-61 -59 -149 -59q-89 0 -150 59z" />
    <glyph glyph-name="cedilla" unicode="&#xb8;" horiz-adv-x="659" 
d="M137 -328q71 -32 133 -32q54 0 84 15q41 20 41 69q0 77 -94 77q-48 0 -80 -20l-45 39l135 180h98l-94 -121l2 -2q22 8 68 8q67 0 117 -37q57 -43 57 -116q0 -95 -80 -146q-67 -43 -168 -43q-126 0 -211 47z" />
    <glyph glyph-name="hungarumlaut" unicode="&#x2dd;" horiz-adv-x="1122" 
d="M561 1499l-291 -333l-170 40l216 363zM1022 1499l-291 -333l-170 40l216 363z" />
    <glyph glyph-name="ogonek" unicode="&#x2db;" horiz-adv-x="622" 
d="M444 0q-111 -88 -154 -148q-38 -55 -38 -116q0 -90 79 -90q63 0 107 69l84 -18q-23 -83 -89 -122q-53 -32 -126 -32l-20 1l-29 4q-39 6 -69 22q-89 46 -89 158l1 17l3 23q7 30 27 60q24 38 69 77q53 47 133 95h111z" />
    <glyph glyph-name="caron" unicode="&#x2c7;" horiz-adv-x="868" 
d="M538 1189l-228 1l-210 305l140 42l190 -216l180 221l158 -40z" />
    <glyph glyph-name="Lslash" unicode="&#x141;" horiz-adv-x="1355" 
d="M249 1521l245 -3l-8 -635l366 247l73 -131l-438 -303l3 -420l765 4v-215l-996 -1l-1 460l-98 -74l-60 142l153 122z" />
    <glyph glyph-name="lslash" unicode="&#x142;" horiz-adv-x="808" 
d="M285 605l-137 -117l-48 100l194 160l-11 663l226 4l-8 -487l135 116l72 -89l-199 -165l-12 -844l-208 3z" />
    <glyph glyph-name="Scaron" unicode="&#x160;" horiz-adv-x="1382" 
d="M100 520l234 52q30 -181 127 -249q92 -64 242 -64h18q162 4 226.5 49t87.5 106q14 40 14 75q0 18 -3 35q-12 49 -76 102t-299.5 117t-326.5 117t-135 144q-43 88 -43 180v5q1 94 40.5 178.5t140 146t285.5 78.5q56 4 106 4q114 0 194 -26q115 -38 194 -113.5t127 -241.5
l-234 -61q-28 129 -108 182q-77 51 -196 51h-11q-126 -3 -205 -49.5t-93 -114.5q-4 -19 -4 -37q0 -47 28 -89q38 -58 102 -84.5t343.5 -107t347.5 -208.5q59 -111 59 -214q0 -17 -2 -33q-11 -119 -83.5 -209.5t-219.5 -143.5q-103 -38 -242 -38q-60 0 -126 7
q-222 23 -339 121t-170 333zM795 1710l-228 1l-210 305l140 42l190 -216l180 221l158 -40z" />
    <glyph glyph-name="scaron" unicode="&#x161;" horiz-adv-x="1092" 
d="M100 347l213 40q16 -161 124 -186q73 -17 135 -17q28 0 54 4q82 11 112 46.5t36 67.5q1 6 1 12q0 26 -18 50q-23 30 -54.5 50t-191.5 66t-230 76t-112 82t-46 135v16q0 74 31 139q34 72 125.5 120t183.5 58q38 4 75 4q52 0 102 -8q86 -14 171.5 -69t136.5 -261l-200 -26
q-40 136 -104 157q-54 17 -107 17q-11 0 -21 -1q-63 -4 -108.5 -37t-49.5 -79v-10q0 -40 29 -65q32 -29 182 -64t260.5 -89.5t136.5 -119.5t26 -144v-3q-1 -82 -44 -150.5t-144.5 -117.5t-244.5 -50q-8 -1 -16 -1q-132 0 -209 25q-81 25 -143.5 85.5t-90.5 247.5zM650 1239
l-228 1l-210 305l140 42l190 -216l180 221l158 -40z" />
    <glyph glyph-name="Zcaron" unicode="&#x17d;" horiz-adv-x="1358" 
d="M166 1462l1052 30l10 -214l-822 -1057l842 -20l10 -241l-1158 40v209l812 1052l-746 -40v241zM783 1630l-228 1l-210 305l140 42l190 -216l180 221l158 -40z" />
    <glyph glyph-name="zcaron" unicode="&#x17e;" horiz-adv-x="1132" 
d="M141 1069l860 -20v-204l-616 -691l647 -20l-20 -224l-912 40v204l606 690l-565 10v215zM670 1189l-228 1l-210 305l140 42l190 -216l180 221l158 -40z" />
    <glyph glyph-name="brokenbar" unicode="&#xa6;" horiz-adv-x="407" 
d="M305 -440l-205 4l2 949l204 -9zM103 1607l204 2l-1 -849l-204 -9z" />
    <glyph glyph-name="Eth" unicode="&#xd0;" horiz-adv-x="1589" 
d="M490 778l397 -3l3 -207l-400 -4l-4 -432l259 -8q276 5 390 159q52 63 79 158q13 76 13 171v66q0 104 -18 182q-22 96 -70 162q-118 151 -397 151l-257 -2zM245 -66l5 623l-144 -2l-6 218l144 3l-5 624l607 4q318 -22 484 -220q159 -191 159 -491v-23q-7 -316 -166 -523
t-509 -221z" />
    <glyph glyph-name="eth" unicode="&#xf0;" horiz-adv-x="1240" 
d="M309 1208l197 95l-91 38q-49 21 -84 31l86 157q176 -66 283 -134l215 102l100 -100l-192 -92q317 -264 317 -672q0 -295 -125 -467q-143 -195 -426 -195q-229 0 -361 153q-128 148 -128 392q0 211 122 361q131 159 335 159q166 0 293 -90h4q-33 74 -96 147
q-50 59 -126 121l-221 -106zM398 748q-65 -91 -65 -246q0 -151 65 -243q72 -103 206 -103q135 0 222 107q81 101 81 239q0 145 -67 241q-75 109 -214 109q-152 0 -228 -104z" />
    <glyph glyph-name="Yacute" unicode="&#xdd;" horiz-adv-x="1492" 
d="M629 643l-529 879l267 40l387 -695l381 695l257 -40l-517 -849v-573l-246 -30v573zM1053 2020l-291 -333l-170 40l216 363z" />
    <glyph glyph-name="yacute" unicode="&#xfd;" horiz-adv-x="1218" 
d="M100 1132l234 48l285 -817l297 769l202 -65l-599 -1499l-187 98l166 448zM916 1599l-291 -333l-170 40l216 363z" />
    <glyph glyph-name="Thorn" unicode="&#xde;" horiz-adv-x="1334" 
d="M329 628l427 2h6q247 0 247 229q-10 150 -78 197t-186 57l-423 -12zM109 66l-9 1510l219 17l9 -276l468 9q235 -8 331.5 -126.5t105.5 -291.5q1 -18 1 -35q0 -152 -70 -270q-78 -133 -353 -185l-465 -3l-7 -359z" />
    <glyph glyph-name="thorn" unicode="&#xfe;" horiz-adv-x="1200" 
d="M870 592q-3 155 -69 255q-77 117 -190 117q-133 0 -210 -106q-70 -98 -70 -253v-13q6 -375 262 -375q133 0 209 116q68 102 68 250v9zM322 1554l-3 -581q50 86 140.5 131.5t206.5 45.5q115 0 227.5 -74t158 -206.5t48.5 -269.5v-14q0 -131 -45 -282q-47 -159 -159 -239
q-83 -60 -213 -60q-45 0 -95 8q-197 27 -270 202l9 -549h-227l12 1888h210z" />
    <glyph glyph-name="multiply" unicode="&#xd7;" horiz-adv-x="1203" 
d="M100 877l181 116l318 -328l335 320l169 -107l-354 -365l354 -349l-172 -122l-332 335l-322 -332l-170 113l347 360z" />
    <glyph glyph-name="Euro" unicode="&#x20ac;" horiz-adv-x="1378" 
d="M1122 1129q-131 151 -287 151q-136 0 -229 -109q-77 -95 -105 -239h541l-53 -131h-502q-2 -6 -2 -29v-90q1 -16 2 -20h473l-51 -130h-412q25 -164 105 -260q92 -116 250 -116q104 0 170 32q61 31 139 103l117 -137q-158 -181 -405 -181h-21q-276 0 -428 168
q-132 145 -166 391h-158l55 130h92q-4 36 -4 65l4 74h-147l53 131h109q52 235 186 373q158 157 404 157q233 0 422 -185z" />
    </font>
</defs>
</svg>
